<svg xmlns:dc="http://purl.org/dc/elements/1.1/" xmlns:cc="http://creativecommons.org/ns#" xmlns:rdf="http://www.w3.org/1999/02/22-rdf-syntax-ns#" xmlns:svg="http://www.w3.org/2000/svg" xmlns="http://www.w3.org/2000/svg" id="Capa_1" x="0px" y="0px" viewBox="0 0 1125.1999 323.63" xml:space="preserve" width="1125.2" height="323.63"><metadata></metadata><defs id="defs96"></defs>
<style type="text/css" id="style2">
	.st0{fill:#95C230;}
	.st1{fill:#834796;}
	.st2{fill:#2E2D2C;}
	.st3{fill-rule:evenodd;clip-rule:evenodd;fill:#95C230;}
	.st4{fill:#87A527;}
	.st5{fill:#FFFFFF;}
	.st6{fill-rule:evenodd;clip-rule:evenodd;fill:#FFFFFF;}
</style>
<g id="g91" transform="translate(-660.80093,-478.88283)">
	
	<g id="g89" transform="translate(-789.76907,-499.71717)">
		<path class="st0" d="m 1594.55,1137.1 c 0,24.64 -47.82,39.35 -68.04,39.35 -2.76,6.44 -4.42,7.17 -11.04,7.17 -1.84,0 -6.07,-0.18 -6.07,-2.94 0,-5.15 0.73,-10.3 1.1,-15.82 0.55,-7.54 1.29,-15.08 2.21,-22.62 2.94,-26.3 6.98,-52.41 12.69,-78.16 -5.52,0.37 -11.04,0.74 -16.36,1.47 -1.85,0.19 -3.87,0.74 -5.71,0.74 -1.65,0 -2.76,-0.55 -2.76,-2.39 0,-3.68 7.18,-4.6 7.18,-4.6 6.06,-0.92 12.87,-1.84 19.3,-2.21 0.92,-4.23 2.03,-8.46 3.31,-12.69 1.47,-4.6 4.22,-7.36 8.64,-9.2 2.21,-0.92 4.41,-1.47 6.8,-1.47 0.92,0 3.13,0 3.13,1.47 0,0.55 -0.18,0.92 -0.37,1.29 -2.39,5.7 -3.49,13.98 -4.78,20.05 11.22,0 50.94,1.1 50.94,17.1 0,14.53 -30.35,31.08 -42.85,34.21 13.25,3.14 42.68,12.15 42.68,29.25 z m -66.58,21.7 c 0,2.39 0,4.78 0.18,7.17 12.5,-1.1 55.36,-10.48 55.36,-26.48 0,-17.84 -36.41,-25.2 -50.02,-27.4 -2.39,15.45 -5.52,31.08 -5.52,46.71 z m 14.16,-95.07 c -2.76,13.24 -4.78,26.67 -6.99,39.91 11.58,-2.76 48.73,-13.06 48.73,-27.77 0.01,-10.86 -34.01,-12.14 -41.74,-12.14 z" id="path61"></path>
		<path class="st0" d="m 1606.49,1153.47 c 0,-16.55 13.43,-51.68 33.29,-51.68 6.62,0 10.29,4.6 10.29,11.04 0,12.32 -17.29,31.81 -28.5,35.86 -0.55,2.57 -0.92,5.15 -0.92,7.72 0,8.28 3.31,13.43 11.95,13.43 15.45,0 27.77,-13.24 35.13,-25.56 1.1,-1.84 2.94,-4.78 5.52,-4.78 1.1,0 2.57,0.73 2.57,2.02 0,2.39 -0.55,3.5 -1.65,5.52 -9.57,16.73 -27.22,31.45 -47.27,31.45 -14.52,-0.01 -20.41,-11.96 -20.41,-25.02 z m 15.64,-11.77 c 7.9,-4.78 19.86,-17.29 19.86,-27.03 0,-2.02 -0.74,-4.23 -3.13,-4.23 -7.36,0 -15.63,24.82 -16.73,31.26 z" id="path63"></path>
		<path class="st0" d="m 1799.59,1137.1 c 0,24.64 -47.82,39.35 -68.04,39.35 -2.76,6.44 -4.42,7.17 -11.04,7.17 -1.84,0 -6.07,-0.18 -6.07,-2.94 0,-5.15 0.73,-10.3 1.11,-15.82 0.55,-7.54 1.29,-15.08 2.21,-22.62 2.94,-26.3 6.98,-52.41 12.69,-78.16 -5.52,0.37 -11.04,0.74 -16.36,1.47 -1.85,0.19 -3.87,0.74 -5.71,0.74 -1.65,0 -2.76,-0.55 -2.76,-2.39 0,-3.68 7.17,-4.6 7.17,-4.6 6.06,-0.92 12.87,-1.84 19.3,-2.21 0.92,-4.23 2.03,-8.46 3.31,-12.69 1.47,-4.6 4.22,-7.36 8.64,-9.2 2.21,-0.92 4.41,-1.47 6.8,-1.47 0.92,0 3.13,0 3.13,1.47 0,0.55 -0.18,0.92 -0.37,1.29 -2.39,5.7 -3.49,13.98 -4.78,20.05 11.22,0 50.94,1.1 50.94,17.1 0,14.53 -30.35,31.08 -42.85,34.21 13.25,3.14 42.68,12.15 42.68,29.25 z m -66.58,21.7 c 0,2.39 0,4.78 0.18,7.17 12.5,-1.1 55.36,-10.48 55.36,-26.48 0,-17.84 -36.41,-25.2 -50.02,-27.4 -2.39,15.45 -5.52,31.08 -5.52,46.71 z m 14.17,-95.07 c -2.76,13.24 -4.78,26.67 -6.99,39.91 11.58,-2.76 48.73,-13.06 48.73,-27.77 0,-10.86 -34.02,-12.14 -41.74,-12.14 z" id="path65"></path>
		<path class="st0" d="m 1834.34,1170.94 c 9.93,0 24.27,-21.15 29.79,-29.79 1.1,-1.65 2.57,-3.86 4.59,-3.86 2.39,0 2.39,2.21 2.39,4.05 0,2.39 -3.5,7.36 -4.97,9.38 -6.99,9.93 -22.62,29.42 -35.68,29.42 -14.52,0 -16.73,-20.78 -16.73,-31.45 0,-6.8 1.83,-16.19 3.86,-22.62 2.21,-6.62 5.52,-11.77 13.24,-11.77 2.76,0 4.22,1.1 4.22,4.05 0,4.97 -4.22,13.98 -5.51,19.49 -1.1,5.34 -1.66,10.85 -1.66,16.37 0.02,4.23 0.21,16.73 6.46,16.73 z m 7.36,-77.79 c 0,4.78 -3.87,9.75 -8.83,9.75 -3.86,0 -6.25,-3.31 -6.25,-6.99 0,-4.6 3.68,-9.74 8.64,-9.74 3.86,0 6.44,3.3 6.44,6.98 z" id="path67"></path>
		<path class="st0" d="m 1898.15,1106.39 c 13.61,0 17.29,14.16 17.29,25.19 0,16.19 -5.71,33.84 -19.68,43.22 -4.24,2.76 -9.2,4.78 -14.35,4.78 -13.24,0 -17.65,-13.42 -17.65,-24.46 0,-18.38 12.5,-48.73 34.39,-48.73 z m -21.14,49.11 c 0,5.88 1.65,15.08 9.19,15.08 3.13,0 6.07,-1.65 8.46,-3.49 9.19,-7.17 13.06,-20.78 13.06,-32 0,-6.07 -1.66,-16.55 -9.56,-16.55 -13.8,-0.01 -21.15,25.92 -21.15,36.96 z" id="path69"></path>
		<path class="st0" d="m 1941.18,1174.44 c -7.9,0 -11.03,-11.04 -11.03,-17.29 0,-19.86 15.08,-45.61 34.2,-45.61 3.68,0 6.99,1.47 9.38,4.23 0,-26.3 14.53,-87.17 35.13,-87.17 8.83,0 10.29,13.42 10.29,19.86 0,25.75 -18.94,69.51 -30.9,92.69 0,5.33 0.38,28.5 7.92,28.5 16.91,0 29.05,-31.26 34.02,-31.26 2.21,0 3.13,1.29 3.13,2.94 0,2.57 -2.21,5.88 -3.68,8.09 -8.28,12.32 -20.6,29.79 -36.42,29.79 -12.69,0 -16.91,-18.21 -18.57,-27.95 -6.8,7.54 -22.8,23.18 -33.47,23.18 z m -0.73,-11.77 c 0,1.29 0,3.68 1.83,3.68 7.73,0 27.96,-20.41 31.27,-26.67 -0.37,-5.33 -0.37,-10.48 -0.37,-15.82 -16.55,0 -32.73,23.54 -32.73,38.81 z m 46.71,-36.78 c 9.74,-20.78 24.09,-57.01 24.09,-79.81 0,-0.92 0,-5.15 -1.84,-5.15 -10.3,0 -22.25,66.02 -22.25,83.12 z" id="path71"></path>
		<path class="st0" d="m 2046.19,1170.94 c 9.93,0 24.27,-21.15 29.79,-29.79 1.1,-1.65 2.57,-3.86 4.59,-3.86 2.39,0 2.39,2.21 2.39,4.05 0,2.39 -3.5,7.36 -4.97,9.38 -6.99,9.93 -22.62,29.42 -35.67,29.42 -14.53,0 -16.74,-20.78 -16.74,-31.45 0,-6.8 1.84,-16.19 3.86,-22.62 2.21,-6.62 5.52,-11.77 13.25,-11.77 2.76,0 4.22,1.1 4.22,4.05 0,4.97 -4.22,13.98 -5.51,19.49 -1.1,5.34 -1.66,10.85 -1.66,16.37 0.01,4.23 0.19,16.73 6.45,16.73 z m 7.35,-77.79 c 0,4.78 -3.87,9.75 -8.83,9.75 -3.86,0 -6.25,-3.31 -6.25,-6.99 0,-4.6 3.68,-9.74 8.64,-9.74 3.86,0 6.44,3.3 6.44,6.98 z" id="path73"></path>
		<path class="st0" d="m 2078.17,1109.89 c 2.39,0 4.05,1.47 5.52,3.13 9.56,10.3 17.29,30.71 20.41,44.32 8.64,-15.44 16.55,-31.63 26.85,-46.16 1.11,-1.47 2.57,-3.86 4.78,-3.86 2.2,0 4.97,1.84 4.97,4.23 0,1.1 -0.74,1.84 -1.29,2.57 -5.71,7.54 -32.18,52.23 -34.03,59.4 0,0 -1.1,6.25 -5.51,6.25 -4.78,0 -5.52,-6.8 -5.52,-6.8 -3.3,-13.24 -12.69,-41.38 -20.78,-52.04 0,0 -2.57,-2.39 -2.57,-3.86 0,-3.14 4.05,-7.18 7.17,-7.18 z" id="path75"></path>
		<path class="st0" d="m 2146.95,1153.47 c 0,-16.55 13.43,-51.68 33.29,-51.68 6.62,0 10.3,4.6 10.3,11.04 0,12.32 -17.29,31.81 -28.5,35.86 -0.55,2.57 -0.92,5.15 -0.92,7.72 0,8.28 3.31,13.43 11.95,13.43 15.45,0 27.77,-13.24 35.13,-25.56 1.1,-1.84 2.94,-4.78 5.51,-4.78 1.1,0 2.57,0.73 2.57,2.02 0,2.39 -0.55,3.5 -1.65,5.52 -9.57,16.73 -27.22,31.45 -47.26,31.45 -14.54,-0.01 -20.42,-11.96 -20.42,-25.02 z m 15.63,-11.77 c 7.9,-4.78 19.86,-17.29 19.86,-27.03 0,-2.02 -0.73,-4.23 -3.13,-4.23 -7.35,0 -15.62,24.82 -16.73,31.26 z" id="path77"></path>
		<path class="st0" d="m 2225.29,1125.52 c -3.87,10.66 -9.56,24.64 -17.66,32.92 -1.29,1.29 -2.94,2.76 -4.97,2.76 -1.47,0 -2.39,-0.92 -2.39,-2.39 0,-1.47 0.74,-2.76 1.66,-4.05 6.99,-10.12 14.34,-20.78 15.81,-33.28 -3.3,-4.42 -4.78,-9.93 -4.78,-15.45 0,-5.7 3.49,-20.6 10.85,-20.6 5.15,0 6.07,10.67 6.07,14.35 0,2.94 -0.18,5.88 -0.55,8.83 5.69,8.64 21.88,9.38 21.88,25.75 0,2.39 -0.36,4.78 -0.92,7.17 -2.02,8.64 -3.67,17.11 -3.67,25.93 0,2.39 0,6.8 3.49,6.8 8.46,0 23.54,-19.13 28.32,-26.3 1.1,-1.65 2.76,-4.05 4.78,-4.05 2.21,0 2.57,2.02 2.57,3.86 0,1.47 -0.73,2.76 -1.47,3.86 -5.89,9.56 -24.46,31.26 -36.23,31.26 -12.14,0 -12.87,-17.1 -12.87,-25.75 0,-6.8 0.92,-13.42 0.92,-20.23 0.01,-6.06 -5.5,-9.74 -10.84,-11.39 z" id="path79"></path>
		<path class="st0" d="m 2324.59,1159.91 c 0,4.97 -1.29,9.93 -4.22,14.16 8.46,0 25.74,-18.94 30.53,-26.11 1.1,-1.65 2.76,-4.05 4.78,-4.05 2.21,0 2.76,1.84 2.76,3.68 0,1.29 -1.1,2.76 -1.66,3.86 -13.79,21.7 -29.61,34.39 -56.27,34.39 -6.99,0 -16.37,-0.92 -21.71,-6.07 -1.1,-1.1 -2.02,-2.39 -2.02,-4.05 0,-1.84 1.29,-2.76 2.94,-2.76 1.47,0 3.68,1.65 3.31,1.29 3.86,2.94 8.27,3.49 13.05,3.49 9.75,0 14.9,-6.62 14.9,-16 0,-11.04 -6.8,-26.67 -12.87,-35.68 -3.5,9.93 -10.67,25.01 -18.03,32.37 -1.1,1.11 -2.94,2.94 -4.78,2.94 -1.48,0 -2.58,-1.1 -2.58,-2.57 0,-1.84 1.1,-3.31 2.21,-4.78 8.28,-10.3 14.71,-22.44 18.76,-35.13 -1.11,-3.13 -1.65,-6.43 -1.65,-9.74 0,-7.17 4.78,-21.52 13.61,-21.52 4.6,0 5.89,6.26 5.89,9.93 0,6.07 -2.03,12.51 -4.24,18.21 5.89,14.16 17.29,28.32 17.29,44.14 z" id="path81"></path>
		<path class="st0" d="m 2374.79,1170.94 c 9.93,0 24.27,-21.15 29.79,-29.79 1.11,-1.65 2.57,-3.86 4.6,-3.86 2.39,0 2.39,2.21 2.39,4.05 0,2.39 -3.5,7.36 -4.97,9.38 -6.99,9.93 -22.62,29.42 -35.68,29.42 -14.52,0 -16.73,-20.78 -16.73,-31.45 0,-6.8 1.83,-16.19 3.86,-22.62 2.21,-6.62 5.52,-11.77 13.25,-11.77 2.76,0 4.22,1.1 4.22,4.05 0,4.97 -4.22,13.98 -5.51,19.49 -1.1,5.34 -1.66,10.85 -1.66,16.37 0,4.23 0.19,16.73 6.44,16.73 z m 7.36,-77.79 c 0,4.78 -3.87,9.75 -8.83,9.75 -3.86,0 -6.25,-3.31 -6.25,-6.99 0,-4.6 3.68,-9.74 8.64,-9.74 3.86,0 6.44,3.3 6.44,6.98 z" id="path83"></path>
		<path class="st0" d="m 2426.65,1122.02 c -2.21,3.86 -7.72,11.22 -7.72,11.22 -0.18,0.92 -0.37,3.13 -0.37,4.05 0,7.35 1.66,34.94 11.59,34.94 11.4,0 24.83,-19.49 30.34,-28.32 0.92,-1.65 2.76,-4.23 4.78,-4.23 1.48,0 2.57,1.29 2.57,2.76 0,2.76 -1.47,5.15 -2.94,7.54 -6.99,11.77 -23.36,33.47 -38.25,33.47 -19.12,0 -22.8,-38.99 -22.8,-52.78 0,-11.95 0.73,-24.27 3.12,-36.04 -1.29,0.37 -2.57,0.55 -3.86,0.55 -2.94,0 -4.41,-1.47 -4.41,-4.42 0,-4.97 5.52,-5.7 9.38,-6.07 4.04,-13.24 14.71,-49.84 32,-49.84 7.72,0 8.27,11.04 8.27,16.55 0,9.56 -1.29,19.68 -4.05,28.88 4.24,-0.55 8.28,-1.47 12.51,-1.47 1.66,0 2.57,0.55 2.57,2.39 0,1.84 -0.92,2.57 -2.39,3.49 -1.84,1.1 -12.32,3.68 -15.08,4.23 -2.94,11.22 -9.19,23.17 -15.26,33.1 z m -9.57,0.56 c 5.52,-6.99 13.8,-22.99 16.19,-31.63 -4.41,0.92 -8.83,0.92 -13.06,2.21 -2.21,9.55 -2.39,19.67 -3.13,29.42 z m 4.24,-39.36 c 4.97,-0.73 10.11,-0.92 15.08,-2.02 2.94,-9.38 5.15,-21.89 5.15,-31.63 0,-1.11 0,-5.52 -1.84,-5.52 -8.46,0 -17.48,31.81 -18.39,39.17 z" id="path85"></path>
		<path class="st0" d="m 2463.42,1232.37 c 0,-24.64 29.24,-48.92 48.18,-61.42 0.19,-3.49 0.19,-6.99 0.19,-10.48 0,-9.56 -0.19,-18.94 -0.55,-28.5 -6.07,10.11 -30.34,37.88 -42.48,37.88 -8.28,0 -9.93,-8.09 -9.93,-14.71 0,-11.03 3.12,-22.62 6.43,-33.1 0.73,-2.39 1.29,-4.78 2.39,-6.99 1.47,-2.94 3.5,-5.15 6.99,-5.15 4.05,0 7.91,3.31 7.91,7.54 0,3.13 -2.76,8.09 -3.86,11.03 -2.57,6.44 -7.73,22.25 -7.73,28.87 0,1.1 0,3.86 1.84,3.86 2.94,0 10.67,-7.72 12.87,-9.93 9.93,-10.12 18.03,-22.07 26.85,-33.29 1.65,-2.02 3.68,-5.15 6.62,-5.15 1.29,0 2.58,0.55 3.68,1.29 2.95,2.02 2.95,16 2.95,20.41 0,32.92 -1.1,70.98 -19.13,98.94 -6.06,9.38 -16,18.76 -27.76,18.76 -11.22,0 -15.46,-10.12 -15.46,-19.86 z m 8.1,0.36 c 0,4.6 1.29,11.77 7.17,11.77 5.88,0 11.58,-6.8 14.9,-11.04 9.56,-12.87 15.44,-38.62 17.1,-54.62 -15.63,12.51 -39.17,32.19 -39.17,53.89 z" id="path87"></path>
	</g>
</g>
</svg>