<?xml version="1.0" encoding="utf-8"?>
<!-- Generator: Adobe Illustrator 24.1.1, SVG Export Plug-In . SVG Version: 6.00 Build 0)  -->
<svg version="1.1" id="Capa_1" xmlns="http://www.w3.org/2000/svg" xmlns:xlink="http://www.w3.org/1999/xlink" x="0px" y="0px"
	 viewBox="0 0 2559.12 933.12" style="enable-background:new 0 0 2559.12 933.12;" xml:space="preserve">
<style type="text/css">
	.st0{fill:#95C230;}
	.st1{fill:#834796;}
	.st2{fill:#2E2D2C;}
	.st3{fill-rule:evenodd;clip-rule:evenodd;fill:#95C230;}
	.st4{fill:#87A527;}
	.st5{fill:#FFFFFF;}
	.st6{fill-rule:evenodd;clip-rule:evenodd;fill:#FFFFFF;}
</style>
<g>
	<g>
		<g>
			<g>
				<path id="XMLID_42_" class="st5" d="M597.8,750.1c-136.96,94.39-326.54,56.9-423.47-83.74
					c-38.51-55.9-56.57-119.68-55.78-182.17c-12.48,73.58,2.93,152.65,49.24,219.83c92.66,134.45,273.91,170.32,404.86,80.07
					c31.62-21.78,57.4-48.96,77.03-79.51C634.54,721.42,617.22,736.73,597.8,750.1z"/>
				<path id="XMLID_41_" class="st0" d="M136.45,402.35c20.61,33.45,22.19,77.11,19.9,107.74c-1.63,21.97-3.33,22.38-4.68,0.89
					c-2.77-44.08-19.31-116.06-94.36-144.75c0,0,61,37.79,67.66,85.36c0,0-17.15-6.73-53.36-46.4
					c-13.28-14.54-22.07-25.81-27.54-34.41c-13.77-21.61-10.99-25.96,0.2-24.61C68.75,349.1,117.21,371.09,136.45,402.35z"/>
				<path id="XMLID_40_" class="st0" d="M204.72,259.5c4.24,44.89-32.97,90.9-32.97,90.9s50.12-77.23-3-136.22
					c0,0,24.87,40.87,15.14,71.24c0,0-8.11-9.17-17.92-43.71c-3.61-12.67-5.52-22.02-6.26-28.8c-1.87-17.04,1-18.79,7.17-14.63
					C180.36,207.39,202.42,235.07,204.72,259.5z"/>
				<path id="XMLID_39_" class="st0" d="M180.82,487.46c-25,60.15,14.82,103.89,14.82,103.89s-42.47-98.02,56.89-156.46
					c0,0-54.21,46.86-53.47,93c0,0,10.68-5.78,39.09-49.21c10.44-15.93,17.61-27.53,21.52-36.56c9.83-22.71-0.84-21.86-11.12-18.38
					C223.18,432.35,194.42,454.75,180.82,487.46z"/>
				<path id="XMLID_38_" class="st0" d="M203.88,321.7c-39.06,25.95-51.81,85.54-51.81,85.54s29.52-90.23,112.02-86.56
					c0,0-49.34,6.94-67.48,34.5c0,0,12.72,0.45,47.07-14.3c12.61-5.42,21.41-10,27.38-13.84c14.98-9.64,14.52-13.07,7.1-15.23
					C261.96,307.03,225.14,307.58,203.88,321.7z"/>
				<path id="XMLID_37_" class="st0" d="M645,611.27c-93.77,113.8-262.03,130.01-375.82,36.26
					c-113.77-93.77-130-262.03-36.23-375.83c34.91-42.36,80.19-71.19,129.08-85.85c-58.21,13.3-112.65,45.18-153.59,94.84
					c-98.41,119.41-81.38,295.98,38.04,394.38c119.42,98.4,295.99,81.39,394.39-38.03c40.92-49.66,61.82-109.2,63.75-168.89
					C699.55,518.98,679.93,568.91,645,611.27z"/>
				<path class="st0" d="M307.06,164c-4.01,3.13-6.56,20.32-11.86,23.97c-3.84,2.64-10.44-3.37-13.68,0.68
					c-1.58,1.95-1.69,11.28-3.56,14.13c-8.39,12.93-20.98,8.68-29.31,23.31c11.71,10.13,9.17,33.36,25.36,27.54
					c-0.76-1.45,16.97-7.5,16.25-8.96c14.03,2.97,19.04,12.14,25.36,1.48c3.6-6.02,31.18-9.18,39.67-10.72
					c-1.69-26.71,34.49-3.2,35.46-26.25c3.9-13.45,7.73-8.67,14.23-7.74c17.88,2.54,20.05-11.2,15.49-20.39
					c-1.65-3.34,9.68,5.57,29.7-8.44c13.54-9.48,33.11-16.02,33.11-16.02c-10.68-4.24-21.68-0.43-36.43,5.36
					c-17.4,6.83-30.74,3.03-38.28,0.81c12.81-4.18,17.44-1.98,29.75-9.97c20.11-13.08,25.44-23.62,23.18-27.93
					c-3.53-5.64-10.76,7.76-23.57,14.12c-9.09,4.5-13.01,6.12-18.5,6.6c0,0-9,0.25-3.9-2.58c10.05-5.56,16.36-15.49,20.7-20.07
					c16.97-17.95,22.98-16.36,25.75-22.43c2.19-4.79-24.23,3.76-51.22,28.22c-12.37,11.21-8.92-25.04-31.04,9.32
					c-6.11-1.04-3.6-18.19-10.46-15.83c-9.4,0.74-20.56,32.69-24.38,17.91c-5.46-3.49-19.22,5.6-17.96,18.16
					c0.37,3.58-5.49,18.02-7.92,12.83C315.87,164.5,307.06,164,307.06,164z"/>
			</g>
			<path class="st6" d="M607.24,165.72c6.08,0.65,13.08-0.8,21-0.34c7.4,0.41,29.42,2.08,24.8,13.51
				c-2.37,5.87-12.14,7.11-17.65,8.13c-19.61,3.59-39.17,2.39-59.88-1.03c5.28,8.1,15.62,8.85,23.53,13.44
				c5.02,2.92,11.81,5.47,17.86,6.31c5.99,0.82,13.58-1.57,19.97,4.89c-0.09,6.67-8.82,9.77-13.45,9.88
				c-2.44,0.06-4.04-1.52-7.21-2.17c-5.23-1.08-10.91-1.64-16.95-4.47c-6.45-3.02-14.08-6.62-18.43-9.87
				c-3.19-2.4-4.83-6.45-7.64-8.26c-1.45-0.92-3.43-0.79-4.98-1.54c-10.68-5.11-22.5-22.4-19.76-31.44
				c-0.66-1.64-3.84-2.84-5.19-2.3c-0.65,3.63,4.31,4.46,3.65,7.28c-4.15,0.33-9.72-4.33-9.18-7.83c1.77-2.59,3.86-4.06,6.09-4.98
				c-0.44-16.3,12.64-36.29,12.52-52.68c3.7,3.95,2.05,9.54,0.87,13.94c-1.19,4.35-3.68,8.88-4.64,13.18
				c-2.12,9.36-5.9,18.56-4.26,26.82c8.42-7.19,14.77-31.75,25.4-43.37c-2.4,16.8-17.75,35.63-21.26,50.93
				c2.07,1.54,8.7,2.66,10.82,4.38c39.44-18.68,42.26-60.85,72.85-60.12c30.57,0.73,43.77,20.36,28.31,33.83
				c-5.57,4.86-17.12,8.61-27.24,12.42c-11.29,4.24-21.97,8.51-28.91,10.79c-0.15,0.47-0.45,0.36-0.77,0.22
				C607.42,165.4,607.33,165.57,607.24,165.72z"/>
		</g>
		<g>
			<path class="st5" d="M930.77,321.38c31.46,0,54.2,10.59,75.37,28.97c2.8,2.49,2.8,6.23,0.31,8.72l-13.7,14.01
				c-2.18,2.8-4.98,2.8-7.79,0c-14.64-12.77-34.57-20.87-53.88-20.87c-44.54,0-78.17,37.37-78.17,80.98
				c0,43.6,33.95,80.67,78.49,80.67c22.73,0,38.62-9.03,53.57-20.56c2.8-2.18,5.6-1.87,7.47-0.31l14.33,14.01
				c2.49,2.18,1.87,6.23-0.31,8.41c-21.18,20.56-47.96,30.21-75.68,30.21c-62.29,0-112.44-49.52-112.44-111.81
				C818.34,371.53,868.48,321.38,930.77,321.38z"/>
			<path class="st5" d="M1034.79,534.42l95.62-209.61c0.94-1.87,3.74-3.43,5.3-3.43h3.12c1.55,0,4.36,1.56,5.29,3.43l95,209.61
				c1.87,4.05-0.62,8.1-5.3,8.1h-19.62c-3.74,0-5.92-1.87-7.16-4.67l-19.31-42.67h-101.85l-19,42.67c-0.93,2.18-3.43,4.67-7.16,4.67
				h-19.62C1035.42,542.52,1032.92,538.47,1034.79,534.42z M1175.88,468.39l-38.31-85.34h-1.56l-38,85.34H1175.88z"/>
			<path class="st5" d="M1281.77,326.99c0-3.12,2.8-5.61,5.91-5.61h2.49c3.11,0,5.3,0,9.34,4.67l130.81,151.68h0.62V330.42
				c0-3.11,2.49-5.92,5.92-5.92h19.93c3.12,0,5.92,2.8,5.92,5.92v209.61c0,3.11-2.8,5.61-5.92,5.61h-2.8c-3.11,0-5.29,0-9.03-4.36
				l-131.13-156.35h-0.62V536.6c0,3.12-2.49,5.92-5.92,5.92h-19.62c-3.11,0-5.91-2.8-5.91-5.92V326.99z"/>
			<path class="st5" d="M1568.3,353.77h-50.77c-3.43,0-5.92-2.8-5.92-5.92v-17.44c0-3.11,2.49-5.92,5.92-5.92h133.93
				c3.43,0,5.92,2.8,5.92,5.92v17.44c0,3.12-2.49,5.92-5.92,5.92h-50.77V536.6c0,3.12-2.8,5.92-5.92,5.92h-20.56
				c-3.11,0-5.92-2.8-5.92-5.92V353.77z"/>
			<path class="st5" d="M1704.09,330.42c0-3.11,2.8-5.92,5.92-5.92h20.87c3.43,0,5.92,2.8,5.92,5.92v131.13
				c0,31.14,19.93,52.95,51.7,52.95c32.08,0,52.33-21.49,52.33-52.33V330.42c0-3.11,2.49-5.92,5.92-5.92h20.87
				c3.12,0,5.92,2.8,5.92,5.92v133.3c0,47.34-35.82,81.91-85.03,81.91c-48.9,0-84.4-34.57-84.4-81.91V330.42z"/>
			<path class="st5" d="M1940.47,330.42c0-3.11,2.49-5.92,5.92-5.92h124.58c3.43,0,5.92,2.8,5.92,5.92v17.44
				c0,3.12-2.49,5.92-5.92,5.92h-98.42v63.54h83.16c3.11,0,5.92,2.8,5.92,5.92v17.44c0,3.43-2.8,5.92-5.92,5.92h-83.16v66.96h98.42
				c3.43,0,5.92,2.8,5.92,5.92v17.13c0,3.12-2.49,5.92-5.92,5.92h-124.58c-3.43,0-5.92-2.8-5.92-5.92V330.42z"/>
			<path class="st5" d="M2118.62,511.06l8.1-12.77c2.49-4.05,7.17-5.3,10.59-2.49c14.64,12.15,25.85,21.49,49.83,21.49
				c21.49,0,35.19-13.08,35.19-28.96c0-18.69-16.2-30.52-47.03-43.29c-31.77-13.39-56.68-29.9-56.68-66.03
				c0-24.3,18.69-57.62,68.21-57.62c31.15,0,54.51,16.2,57.62,18.38c2.49,1.56,4.98,5.92,1.87,10.59l-7.79,11.84
				c-2.49,4.05-6.54,5.92-10.9,3.12c-12.15-7.79-23.98-15.57-42.05-15.57c-26.16,0-35.19,16.51-35.19,28.03
				c0,17.76,13.7,28.66,39.55,39.24c36.13,14.64,66.97,31.77,66.97,69.77c0,32.39-28.97,58.87-69.46,58.87
				c-38,0-61.98-19.93-66.96-24.6C2117.69,518.54,2115.19,516.36,2118.62,511.06z"/>
			<path class="st5" d="M2409.2,321.38c62.29,0,112.12,50.15,112.12,112.44c0,62.29-49.83,111.81-112.12,111.81
				s-111.81-49.52-111.81-111.81C2297.39,371.53,2346.91,321.38,2409.2,321.38z M2409.2,515.42c44.54,0,80.98-37.06,80.98-81.6
				c0-44.23-36.44-82.22-80.98-82.22c-44.23,0-80.67,38-80.67,82.22C2328.53,478.36,2364.97,515.42,2409.2,515.42z"/>
		</g>
		<g>
			<g>
				<path class="st5" d="M818.34,623c0-1.66,1.45-2.69,3.1-2.69h1.45c1.45,0,2.49,0.41,3.31,1.66l98.18,127.8c0.21,0,0.21,0,0.21,0
					V625.07c0-1.45,1.24-2.69,2.69-2.69h4.14c1.45,0,2.69,1.24,2.69,2.69v141.67c0,1.86-1.66,2.7-3.31,2.7h-0.62
					c-1.45,0-2.48-0.42-3.31-1.66l-99-129.04h-0.21v125.93c0,1.45-1.24,2.69-2.69,2.69h-3.94c-1.45,0-2.69-1.24-2.69-2.69V623z"/>
				<path class="st5" d="M1016.3,705.64c10.98,0,22.16,3.52,24.65,4.35c0-21.13-2.69-31.9-21.54-31.9c-15.74,0-26.72,5.8-28.59,6.42
					c-2.07,0.83-3.31,0-3.73-1.45l-1.04-2.9c-1.03-1.86,0.21-2.9,1.24-3.52c0.62-0.42,12.84-7.04,32.93-7.04
					c29,0,29.83,16.99,29.83,41.63v53.02c0,1.66-1.66,3.11-3.31,3.11h-1.66c-1.66,0-2.7-0.83-2.9-2.69l-1.03-8.7
					c-6.01,6.01-18.43,13.67-33.56,13.67c-17.81,0-31.07-12.02-31.07-31.69C976.54,719.52,991.24,705.64,1016.3,705.64z
					 M1008.64,760.74c14.5,0,27.75-8.7,32.31-14.5v-27.55c-3.11-1.45-13.26-4.97-24.65-4.97c-18.23,0-30.86,9.94-30.86,24.03
					C985.44,751.42,995.39,760.74,1008.64,760.74z"/>
				<path class="st5" d="M1103.06,680.58h-11.6c-2.49,0-3.11-1.24-3.11-3.11v-3.31c0-1.86,1.24-2.48,3.11-2.48h11.6v-26.1
					c0-1.86,1.45-2.9,3.31-3.11l2.7-0.21c1.66-0.21,3.1,1.45,3.1,3.11v26.31h33.76c2.07,0,3.31,1.45,3.31,3.1v2.69
					c0,1.87-1.24,3.11-3.31,3.11h-33.76v62.55c0,12.43,2.07,17.6,13.05,17.6c10.56,0,19.06-5.8,21.96-7.66
					c2.28-1.24,3.1-0.21,3.73,0.83l1.66,2.9c0.83,1.66,0.41,2.7-0.83,3.73c-3.52,2.69-14.71,9.11-27.75,9.11
					c-17.81,0-20.92-11.81-20.92-25.48V680.58z"/>
				<path class="st5" d="M1187.55,674.78c0-1.66,1.45-3.1,3.11-3.1h3.1c1.66,0,2.9,1.45,2.9,3.1v53.65
					c0,22.16,7.46,32.31,27.13,32.31c18.02,0,27.34-13.67,30.24-17.81v-68.15c0-2.07,1.03-3.1,3.11-3.1h3.11
					c1.45,0,2.9,1.45,2.9,3.1v89.48c0,1.66-1.45,3.11-2.9,3.11h-1.87c-1.66,0-2.69-1.45-2.9-2.9l-0.83-9.32
					c-2.49,3.31-12.63,14.5-31.48,14.5c-26.93,0-35.63-14.29-35.63-41.22V674.78z"/>
				<path class="st5" d="M1312.62,674.78c0-1.66,1.24-3.1,3.11-3.1h1.45c1.45,0,2.49,0.83,2.7,2.69l1.03,9.73
					c2.49-3.31,12.63-14.5,30.45-14.5c7.66,0,13.05,2.07,14.91,2.69c2.07,0.62,3.11,2.49,2.49,4.35l-1.24,3.73
					c-0.62,1.86-2.28,2.07-3.94,1.24c-1.03-0.62-6.21-3.11-12.84-3.11c-18.64,0-28.38,14.91-29,16.36v69.38
					c0,2.07-1.03,3.11-3.11,3.11h-3.31c-1.86,0-2.69-1.45-2.69-3.11V674.78z"/>
				<path class="st5" d="M1435.01,705.64c10.98,0,22.16,3.52,24.65,4.35c0-21.13-2.69-31.9-21.54-31.9
					c-15.74,0-26.72,5.8-28.59,6.42c-2.07,0.83-3.31,0-3.73-1.45l-1.04-2.9c-1.03-1.86,0.21-2.9,1.24-3.52
					c0.62-0.42,12.84-7.04,32.93-7.04c29,0,29.83,16.99,29.83,41.63v53.02c0,1.66-1.66,3.11-3.31,3.11h-1.66
					c-1.66,0-2.7-0.83-2.9-2.69l-1.03-8.7c-6.01,6.01-18.43,13.67-33.56,13.67c-17.81,0-31.07-12.02-31.07-31.69
					C1395.25,719.52,1409.95,705.64,1435.01,705.64z M1427.35,760.74c14.5,0,27.75-8.7,32.31-14.5v-27.55
					c-3.11-1.45-13.26-4.97-24.65-4.97c-18.23,0-30.86,9.94-30.86,24.03C1404.15,751.42,1414.1,760.74,1427.35,760.74z"/>
				<path class="st5" d="M1518.66,625.49c0-1.66,1.24-3.11,3.11-3.11h2.9c1.45,0,3.11,1.45,3.11,3.11v138.77
					c0,2.07-1.04,3.11-3.11,3.11h-3.31c-1.86,0-2.7-1.45-2.7-3.11V625.49z"/>
				<path class="st5" d="M1638.56,748.1l1.86-2.49c1.45-1.66,2.9-2.28,4.56-0.83c2.07,1.86,17.4,15.95,38.32,15.95
					c18.85,0,34.8-10.15,34.8-27.75c0-18.44-15.12-26.72-40.18-35.21c-24.03-8.49-39.97-16.99-39.97-40.8
					c0-15.54,12.43-36.66,44.74-36.66c20.51,0,35.63,10.56,35.63,10.56c0.83,0.62,2.28,2.07,0.83,4.35l-1.66,2.69
					c-1.03,1.86-2.49,2.28-4.56,1.03c-0.62-0.41-14.5-9.74-30.44-9.74c-25.48,0-35,15.74-35,27.55c0,17.6,13.46,25.27,34.38,32.1
					c28.38,9.74,46.4,19.68,46.4,43.7c0,22.99-21.33,36.87-45.16,36.87c-24.64,0-41.21-14.5-43.91-16.99
					C1637.94,751.42,1636.9,750.38,1638.56,748.1z"/>
				<path class="st5" d="M1809.41,669.6c25.27,0,42.88,19.06,42.88,43.5c0,3.73,0,9.32-3.52,9.32h-76.43
					c0.42,21.33,16.57,38.32,37.08,38.32c13.46,0,23.61-5.59,29.41-9.53c2.07-1.24,3.1-1.45,4.14,0l2.28,3.52
					c0.83,0.83,0.62,2.49-1.03,3.73c-5.59,4.56-19.68,11.19-34.8,11.19c-28.17,0-46.19-22.37-46.19-50.33
					C1763.22,692.18,1781.24,669.6,1809.41,669.6z M1843.17,713.93c0-18.85-12.22-35.42-33.76-35.42
					c-20.71,0-35.63,15.53-36.87,35.42H1843.17z"/>
				<path class="st5" d="M1933.65,669.6c25.27,0,42.88,19.06,42.88,43.5c0,3.73,0,9.32-3.52,9.32h-76.43
					c0.42,21.33,16.57,38.32,37.08,38.32c13.46,0,23.61-5.59,29.41-9.53c2.07-1.24,3.11-1.45,4.15,0l2.28,3.52
					c0.83,0.83,0.62,2.49-1.03,3.73c-5.59,4.56-19.68,11.19-34.8,11.19c-28.17,0-46.19-22.37-46.19-50.33
					C1887.46,692.18,1905.48,669.6,1933.65,669.6z M1967.41,713.93c0-18.85-12.22-35.42-33.76-35.42
					c-20.71,0-35.63,15.53-36.87,35.42H1967.41z"/>
				<path class="st5" d="M2057.9,669.6c18.43,0,30.24,9.32,30.24,9.32v-53.44c0-1.66,1.03-3.11,3.1-3.11h3.11
					c1.24,0,2.9,1.45,2.9,3.11v138.77c0,1.66-1.66,3.11-3.1,3.11h-1.24c-1.86,0-3.1-0.83-3.52-3.11l-0.62-8.49
					c-2.69,3.31-15.12,13.88-33.55,13.88c-24.85,0-43.5-22.16-43.5-50.13C2011.71,691.97,2030.76,669.6,2057.9,669.6z
					 M2055.82,760.74c20.92,0,31.9-15.12,32.31-16.15v-55.3c0,0-11.6-10.77-29-10.77c-21.95,0-38.32,18.43-38.32,41.01
					C2020.82,741.68,2035.73,760.74,2055.82,760.74z"/>
				<path class="st5" d="M2140.72,755.56l1.86-3.31c0.83-1.45,2.69-1.66,4.35-0.42c2.49,2.07,12.63,9.32,26.1,9.32
					c14.5,0,23.82-7.04,23.82-17.19c0-10.98-11.6-16.16-27.76-22.16c-16.78-6.01-28.58-12.63-28.58-27.76
					c0-10.35,8.7-24.44,30.65-24.44c12.64,0,22.16,4.35,26.93,7.25c1.45,1.03,2.07,2.69,1.24,4.35l-1.24,2.28
					c-0.83,1.66-2.49,1.66-4.14,0.83c-2.28-1.24-12.63-6.22-22.79-6.22c-15.12,0-21.54,8.49-21.54,15.74
					c0,9.53,9.53,14.71,23.61,19.88c17.81,6.63,32.72,12.02,32.72,30.24c0,14.5-13.67,25.68-32.93,25.68
					c-16.16,0-26.1-6.63-31.28-10.56C2140.72,758.25,2139.89,757.01,2140.72,755.56z"/>
			</g>
		</g>
	</g>
</g>
</svg>
