<?xml version="1.0" encoding="utf-8"?>
<!-- Generator: Adobe Illustrator 24.1.1, SVG Export Plug-In . SVG Version: 6.00 Build 0)  -->
<svg version="1.1" id="Capa_1" xmlns="http://www.w3.org/2000/svg" xmlns:xlink="http://www.w3.org/1999/xlink" x="0px" y="0px"
	 viewBox="0 0 2559.12 3406.59" style="enable-background:new 0 0 2559.12 3406.59;" xml:space="preserve">
<style type="text/css">
	.st0{fill:#95C230;}
	.st1{fill:#834796;}
	.st2{fill:#2E2D2C;}
	.st3{fill-rule:evenodd;clip-rule:evenodd;fill:#95C230;}
	.st4{fill:#87A527;}
	.st5{fill:#FFFFFF;}
	.st6{fill-rule:evenodd;clip-rule:evenodd;fill:#FFFFFF;}
</style>
<g>
	<g>
		<g>
			<g>
				<path class="st2" d="M222.67,2021.23c44.99,0,77.5,15.15,107.79,41.42c4.01,3.56,4.01,8.91,0.45,12.47l-19.6,20.04
					c-3.12,4.01-7.12,4.01-11.13,0c-20.94-18.26-49.44-29.84-77.06-29.84c-63.69,0-111.79,53.45-111.79,115.8
					c0,62.35,48.55,115.36,112.24,115.36c32.51,0,55.23-12.91,76.61-29.4c4.01-3.11,8.01-2.67,10.69-0.45l20.49,20.04
					c3.57,3.12,2.68,8.91-0.44,12.03c-30.29,29.4-68.59,43.2-108.23,43.2c-89.08,0-160.79-70.82-160.79-159.9
					C61.88,2092.95,133.59,2021.23,222.67,2021.23z"/>
				<path class="st2" d="M371.42,2325.89l136.74-299.76c1.34-2.67,5.34-4.9,7.57-4.9h4.45c2.22,0,6.23,2.23,7.57,4.9l135.85,299.76
					c2.67,5.79-0.89,11.58-7.57,11.58h-28.06c-5.34,0-8.46-2.67-10.24-6.68l-27.61-61.02H444.47l-27.17,61.02
					c-1.33,3.11-4.9,6.68-10.24,6.68H379C372.32,2337.47,368.75,2331.68,371.42,2325.89z M573.19,2231.47l-54.79-122.04h-2.22
					l-54.34,122.04H573.19z"/>
				<path class="st2" d="M724.62,2029.25c0-4.45,4-8.02,8.46-8.02h3.57c4.45,0,7.57,0,13.36,6.68l187.06,216.91h0.89v-210.68
					c0-4.45,3.56-8.46,8.46-8.46h28.51c4.45,0,8.46,4.01,8.46,8.46v299.75c0,4.45-4.01,8.02-8.46,8.02h-4.01
					c-4.45,0-7.57,0-12.91-6.23L770.49,2112.1h-0.89V2329c0,4.45-3.56,8.46-8.46,8.46h-28.06c-4.45,0-8.46-4.01-8.46-8.46V2029.25z"
					/>
				<path class="st2" d="M1134.37,2067.56h-72.6c-4.9,0-8.46-4.01-8.46-8.46v-24.94c0-4.45,3.56-8.46,8.46-8.46h191.53
					c4.9,0,8.46,4.01,8.46,8.46v24.94c0,4.45-3.56,8.46-8.46,8.46h-72.6V2329c0,4.45-4.01,8.46-8.46,8.46h-29.4
					c-4.45,0-8.46-4.01-8.46-8.46V2067.56z"/>
				<path class="st2" d="M1328.55,2034.15c0-4.45,4.01-8.46,8.46-8.46h29.84c4.9,0,8.46,4.01,8.46,8.46v187.52
					c0,44.54,28.51,75.72,73.93,75.72c45.88,0,74.83-30.74,74.83-74.83v-188.41c0-4.45,3.57-8.46,8.46-8.46h29.84
					c4.45,0,8.46,4.01,8.46,8.46v190.63c0,67.7-51.22,117.14-121.6,117.14c-69.92,0-120.7-49.44-120.7-117.14V2034.15z"/>
				<path class="st2" d="M1666.6,2034.15c0-4.45,3.56-8.46,8.46-8.46h178.16c4.9,0,8.46,4.01,8.46,8.46v24.94
					c0,4.45-3.56,8.46-8.46,8.46h-140.75v90.86h118.92c4.45,0,8.46,4.01,8.46,8.46v24.94c0,4.9-4.01,8.46-8.46,8.46h-118.92v95.76
					h140.75c4.9,0,8.46,4.01,8.46,8.46v24.5c0,4.45-3.56,8.46-8.46,8.46h-178.16c-4.9,0-8.46-4.01-8.46-8.46V2034.15z"/>
				<path class="st2" d="M1921.35,2292.49l11.58-18.26c3.56-5.79,10.25-7.57,15.15-3.57c20.93,17.37,36.96,30.73,71.26,30.73
					c30.73,0,50.33-18.71,50.33-41.42c0-26.73-23.16-43.65-67.25-61.91c-45.43-19.15-81.06-42.76-81.06-94.43
					c0-34.74,26.73-82.4,97.54-82.4c44.54,0,77.95,23.16,82.4,26.28c3.56,2.22,7.12,8.46,2.67,15.14l-11.13,16.93
					c-3.56,5.79-9.35,8.46-15.59,4.45c-17.37-11.14-34.29-22.27-60.13-22.27c-37.41,0-50.33,23.61-50.33,40.08
					c0,25.39,19.6,40.98,56.56,56.12c51.67,20.94,95.76,45.43,95.76,99.77c0,46.32-41.42,84.18-99.32,84.18
					c-54.34,0-88.64-28.51-95.76-35.19C1920.02,2303.17,1916.45,2300.05,1921.35,2292.49z"/>
				<path class="st2" d="M2336.89,2021.23c89.08,0,160.34,71.71,160.34,160.79c0,89.08-71.26,159.9-160.34,159.9
					c-89.08,0-159.9-70.82-159.9-159.9C2176.99,2092.95,2247.81,2021.23,2336.89,2021.23z M2336.89,2298.72
					c63.7,0,115.81-53,115.81-116.7c0-63.25-52.11-117.58-115.81-117.58c-63.25,0-115.36,54.34-115.36,117.58
					C2221.54,2245.72,2273.65,2298.72,2336.89,2298.72z"/>
			</g>
			<g>
				<g>
					<path class="st2" d="M305.47,2457.47c0-2.33,2.03-3.78,4.36-3.78h2.04c2.04,0,3.49,0.58,4.66,2.33l138.03,179.67
						c0.29,0,0.29,0,0.29,0v-175.31c0-2.03,1.74-3.78,3.78-3.78h5.82c2.04,0,3.78,1.75,3.78,3.78v199.18c0,2.62-2.33,3.79-4.66,3.79
						h-0.87c-2.03,0-3.49-0.58-4.66-2.33l-139.19-181.42h-0.29v177.05c0,2.04-1.75,3.79-3.79,3.79h-5.53
						c-2.04,0-3.78-1.74-3.78-3.79V2457.47z"/>
					<path class="st2" d="M583.8,2573.66c15.43,0,31.16,4.95,34.65,6.12c0-29.71-3.78-44.85-30.29-44.85
						c-22.13,0-37.57,8.15-40.19,9.03c-2.91,1.17-4.66,0-5.24-2.04l-1.46-4.07c-1.45-2.62,0.29-4.08,1.75-4.95
						c0.88-0.59,18.06-9.9,46.3-9.9c40.77,0,41.93,23.88,41.93,58.53v74.55c0,2.33-2.33,4.37-4.66,4.37h-2.33
						c-2.33,0-3.79-1.17-4.08-3.79l-1.45-12.23c-8.44,8.44-25.92,19.22-47.18,19.22c-25.04,0-43.68-16.89-43.68-44.55
						C527.89,2593.17,548.57,2573.66,583.8,2573.66z M573.03,2651.12c20.38,0,39.02-12.23,45.43-20.38v-38.73
						c-4.37-2.04-18.64-6.99-34.65-6.99c-25.63,0-43.39,13.98-43.39,33.78C540.42,2638.02,554.39,2651.12,573.03,2651.12z"/>
					<path class="st2" d="M705.78,2538.43h-16.31c-3.49,0-4.37-1.74-4.37-4.37v-4.66c0-2.62,1.75-3.49,4.37-3.49h16.31v-36.69
						c0-2.62,2.04-4.08,4.66-4.37l3.79-0.29c2.33-0.29,4.36,2.04,4.36,4.37v36.98h47.47c2.91,0,4.66,2.04,4.66,4.36v3.78
						c0,2.63-1.75,4.37-4.66,4.37h-47.47v87.95c0,17.47,2.91,24.75,18.35,24.75c14.85,0,26.79-8.15,30.87-10.77
						c3.2-1.75,4.36-0.29,5.24,1.16l2.33,4.07c1.16,2.33,0.58,3.79-1.17,5.24c-4.95,3.78-20.68,12.81-39.02,12.81
						c-25.05,0-29.42-16.6-29.42-35.82V2538.43z"/>
					<path class="st2" d="M824.56,2530.27c0-2.33,2.04-4.36,4.37-4.36h4.36c2.33,0,4.08,2.04,4.08,4.36v75.42
						c0,31.16,10.48,45.43,38.15,45.43c25.33,0,38.43-19.22,42.51-25.04v-95.81c0-2.91,1.45-4.36,4.37-4.36h4.37
						c2.03,0,4.07,2.04,4.07,4.36v125.8c0,2.33-2.04,4.37-4.07,4.37h-2.63c-2.33,0-3.78-2.04-4.07-4.07l-1.17-13.11
						c-3.49,4.66-17.76,20.39-44.26,20.39c-37.86,0-50.09-20.1-50.09-57.95V2530.27z"/>
					<path class="st2" d="M1000.41,2530.27c0-2.33,1.74-4.36,4.37-4.36h2.04c2.04,0,3.5,1.16,3.79,3.79l1.45,13.68
						c3.49-4.66,17.76-20.38,42.81-20.38c10.77,0,18.35,2.91,20.97,3.78c2.91,0.87,4.37,3.49,3.49,6.12l-1.75,5.24
						c-0.88,2.62-3.2,2.91-5.53,1.75c-1.45-0.88-8.73-4.37-18.05-4.37c-26.21,0-39.89,20.97-40.77,23.01v97.55
						c0,2.91-1.45,4.37-4.37,4.37h-4.66c-2.62,0-3.78-2.04-3.78-4.37V2530.27z"/>
					<path class="st2" d="M1172.48,2573.66c15.43,0,31.16,4.95,34.65,6.12c0-29.71-3.78-44.85-30.29-44.85
						c-22.13,0-37.57,8.15-40.19,9.03c-2.91,1.17-4.66,0-5.24-2.04l-1.46-4.07c-1.45-2.62,0.29-4.08,1.75-4.95
						c0.87-0.59,18.06-9.9,46.3-9.9c40.77,0,41.93,23.88,41.93,58.53v74.55c0,2.33-2.33,4.37-4.66,4.37h-2.33
						c-2.33,0-3.79-1.17-4.08-3.79l-1.45-12.23c-8.44,8.44-25.92,19.22-47.18,19.22c-25.04,0-43.68-16.89-43.68-44.55
						C1116.57,2593.17,1137.24,2573.66,1172.48,2573.66z M1161.71,2651.12c20.38,0,39.02-12.23,45.43-20.38v-38.73
						c-4.37-2.04-18.64-6.99-34.65-6.99c-25.63,0-43.39,13.98-43.39,33.78C1129.09,2638.02,1143.07,2651.12,1161.71,2651.12z"/>
					<path class="st2" d="M1290.09,2460.97c0-2.33,1.75-4.37,4.37-4.37h4.08c2.04,0,4.37,2.04,4.37,4.37v195.1
						c0,2.91-1.46,4.37-4.37,4.37h-4.66c-2.62,0-3.79-2.04-3.79-4.37V2460.97z"/>
					<path class="st2" d="M1458.65,2633.36l2.62-3.5c2.04-2.33,4.07-3.2,6.4-1.16c2.91,2.62,24.47,22.42,53.88,22.42
						c26.5,0,48.92-14.27,48.92-39.02c0-25.92-21.26-37.57-56.5-49.51c-33.78-11.94-56.2-23.88-56.2-57.37
						c0-21.84,17.47-51.54,62.9-51.54c28.83,0,50.09,14.85,50.09,14.85c1.17,0.88,3.2,2.91,1.17,6.12l-2.33,3.78
						c-1.45,2.62-3.49,3.2-6.41,1.45c-0.87-0.58-20.38-13.69-42.8-13.69c-35.82,0-49.21,22.13-49.21,38.73
						c0,24.75,18.93,35.52,48.34,45.13c39.89,13.69,65.23,27.67,65.23,61.45c0,32.32-30,51.84-63.49,51.84
						c-34.65,0-57.95-20.39-61.73-23.88C1457.78,2638.02,1456.32,2636.56,1458.65,2633.36z"/>
					<path class="st2" d="M1698.85,2522.99c35.53,0,60.28,26.79,60.28,61.15c0,5.24,0,13.1-4.95,13.1h-107.46
						c0.59,29.99,23.3,53.87,52.13,53.87c18.93,0,33.19-7.86,41.35-13.39c2.91-1.75,4.36-2.04,5.82,0l3.2,4.95
						c1.17,1.17,0.88,3.49-1.45,5.24c-7.86,6.41-27.67,15.73-48.92,15.73c-39.6,0-64.94-31.45-64.94-70.76
						C1633.91,2554.73,1659.25,2522.99,1698.85,2522.99z M1746.32,2585.31c0-26.5-17.18-49.79-47.47-49.79
						c-29.12,0-50.09,21.84-51.83,49.79H1746.32z"/>
					<path class="st2" d="M1873.53,2522.99c35.53,0,60.28,26.79,60.28,61.15c0,5.24,0,13.1-4.95,13.1H1821.4
						c0.58,29.99,23.3,53.87,52.13,53.87c18.93,0,33.2-7.86,41.35-13.39c2.91-1.75,4.37-2.04,5.83,0l3.2,4.95
						c1.16,1.17,0.87,3.49-1.45,5.24c-7.86,6.41-27.67,15.73-48.92,15.73c-39.6,0-64.94-31.45-64.94-70.76
						C1808.59,2554.73,1833.92,2522.99,1873.53,2522.99z M1921,2585.31c0-26.5-17.18-49.79-47.47-49.79
						c-29.12,0-50.09,21.84-51.84,49.79H1921z"/>
					<path class="st2" d="M2048.21,2522.99c25.92,0,42.52,13.1,42.52,13.1v-75.13c0-2.33,1.45-4.37,4.36-4.37h4.37
						c1.74,0,4.07,2.04,4.07,4.37v195.1c0,2.33-2.33,4.37-4.36,4.37h-1.75c-2.62,0-4.36-1.17-4.95-4.37l-0.87-11.94
						c-3.78,4.66-21.26,19.51-47.17,19.51c-34.94,0-61.16-31.16-61.16-70.47C1983.27,2554.44,2010.06,2522.99,2048.21,2522.99z
						 M2045.3,2651.12c29.42,0,44.85-21.26,45.43-22.71v-77.75c0,0-16.31-15.14-40.77-15.14c-30.86,0-53.87,25.92-53.87,57.66
						C1996.08,2624.33,2017.05,2651.12,2045.3,2651.12z"/>
					<path class="st2" d="M2164.65,2643.84l2.62-4.66c1.17-2.04,3.78-2.33,6.11-0.58c3.49,2.91,17.76,13.11,36.69,13.11
						c20.38,0,33.49-9.9,33.49-24.17c0-15.43-16.31-22.72-39.02-31.16c-23.59-8.44-40.18-17.76-40.18-39.02
						c0-14.56,12.23-34.36,43.09-34.36c17.77,0,31.16,6.11,37.86,10.19c2.04,1.45,2.91,3.78,1.74,6.11l-1.74,3.2
						c-1.17,2.33-3.49,2.33-5.82,1.17c-3.2-1.75-17.76-8.74-32.03-8.74c-21.26,0-30.29,11.94-30.29,22.13
						c0,13.4,13.4,20.68,33.2,27.96c25.04,9.32,46.01,16.89,46.01,42.52c0,20.38-19.22,36.11-46.3,36.11
						c-22.72,0-36.69-9.32-43.97-14.85C2164.65,2647.63,2163.48,2645.88,2164.65,2643.84z"/>
				</g>
			</g>
		</g>
		<g>
			<path class="st0" d="M679.48,3138.83c0,35.33-68.55,56.41-97.54,56.41c-3.96,9.23-6.34,10.28-15.82,10.28
				c-2.64,0-8.7-0.26-8.7-4.22c0-7.38,1.05-14.76,1.58-22.67c0.78-10.81,1.84-21.62,3.17-32.42c4.21-37.7,10.01-75.13,18.19-112.04
				c-7.91,0.53-15.82,1.06-23.46,2.11c-2.65,0.27-5.54,1.06-8.18,1.06c-2.37,0-3.95-0.79-3.95-3.43c0-5.27,10.29-6.59,10.29-6.59
				c8.69-1.32,18.44-2.64,27.67-3.16c1.32-6.07,2.91-12.12,4.75-18.19c2.11-6.59,6.06-10.54,12.39-13.18
				c3.17-1.32,6.33-2.11,9.74-2.11c1.32,0,4.49,0,4.49,2.11c0,0.79-0.26,1.32-0.53,1.84c-3.42,8.17-5,20.03-6.85,28.74
				c16.08,0,73.02,1.58,73.02,24.51c0,20.83-43.51,44.55-61.43,49.03C637.3,3101.4,679.48,3114.32,679.48,3138.83z M584.05,3169.94
				c0,3.43,0,6.86,0.26,10.28c17.92-1.58,79.35-15.02,79.35-37.96c0-25.57-52.2-36.12-71.71-39.28
				C588.53,3125.12,584.05,3147.53,584.05,3169.94z M604.35,3033.65c-3.96,18.98-6.86,38.22-10.01,57.21
				c16.6-3.96,69.85-18.72,69.85-39.81C664.18,3035.5,615.42,3033.65,604.35,3033.65z"/>
			<path class="st0" d="M696.6,3162.3c0-23.72,19.25-74.08,47.72-74.08c9.48,0,14.76,6.59,14.76,15.82
				c0,17.66-24.78,45.6-40.86,51.41c-0.78,3.69-1.31,7.38-1.31,11.07c0,11.86,4.74,19.25,17.13,19.25
				c22.15,0,39.81-18.98,50.35-36.64c1.58-2.64,4.22-6.85,7.91-6.85c1.58,0,3.69,1.05,3.69,2.9c0,3.43-0.79,5.01-2.37,7.91
				c-13.71,23.99-39.02,45.08-67.76,45.08C705.04,3198.15,696.6,3181.01,696.6,3162.3z M719.02,3145.42
				c11.33-6.85,28.47-24.78,28.47-38.75c0-2.9-1.06-6.07-4.49-6.07C732.45,3100.61,720.59,3136.2,719.02,3145.42z"/>
			<path class="st0" d="M973.4,3138.83c0,35.33-68.55,56.41-97.54,56.41c-3.96,9.23-6.34,10.28-15.82,10.28
				c-2.64,0-8.7-0.26-8.7-4.22c0-7.38,1.05-14.76,1.58-22.67c0.78-10.81,1.84-21.62,3.17-32.42c4.21-37.7,10.01-75.13,18.18-112.04
				c-7.91,0.53-15.82,1.06-23.46,2.11c-2.65,0.27-5.54,1.06-8.18,1.06c-2.37,0-3.95-0.79-3.95-3.43c0-5.27,10.28-6.59,10.28-6.59
				c8.69-1.32,18.45-2.64,27.67-3.16c1.32-6.07,2.91-12.12,4.75-18.19c2.11-6.59,6.06-10.54,12.39-13.18
				c3.17-1.32,6.32-2.11,9.74-2.11c1.32,0,4.49,0,4.49,2.11c0,0.79-0.26,1.32-0.53,1.84c-3.42,8.17-5,20.03-6.85,28.74
				c16.08,0,73.02,1.58,73.02,24.51c0,20.83-43.51,44.55-61.43,49.03C931.22,3101.4,973.4,3114.32,973.4,3138.83z M877.97,3169.94
				c0,3.43,0,6.86,0.26,10.28c17.92-1.58,79.35-15.02,79.35-37.96c0-25.57-52.2-36.12-71.71-39.28
				C882.45,3125.12,877.97,3147.53,877.97,3169.94z M898.27,3033.65c-3.96,18.98-6.86,38.22-10.01,57.21
				c16.6-3.96,69.85-18.72,69.85-39.81C958.1,3035.5,909.34,3033.65,898.27,3033.65z"/>
			<path class="st0" d="M1023.21,3187.34c14.23,0,34.8-30.31,42.7-42.7c1.58-2.37,3.69-5.53,6.59-5.53c3.43,0,3.43,3.16,3.43,5.8
				c0,3.43-5.01,10.55-7.12,13.44c-10.01,14.24-32.42,42.18-51.14,42.18c-20.81,0-23.98-29.79-23.98-45.08
				c0-9.75,2.63-23.2,5.53-32.43c3.17-9.49,7.91-16.87,18.99-16.87c3.95,0,6.06,1.58,6.06,5.8c0,7.12-6.06,20.03-7.9,27.94
				c-1.58,7.65-2.38,15.56-2.38,23.46C1013.98,3169.41,1014.25,3187.34,1023.21,3187.34z M1033.76,3075.83
				c0,6.86-5.54,13.97-12.66,13.97c-5.53,0-8.96-4.75-8.96-10.02c0-6.59,5.27-13.97,12.39-13.97
				C1030.06,3065.81,1033.76,3070.56,1033.76,3075.83z"/>
			<path class="st0" d="M1114.69,3094.81c19.51,0,24.78,20.3,24.78,36.11c0,23.2-8.18,48.51-28.21,61.95
				c-6.07,3.96-13.19,6.85-20.57,6.85c-18.98,0-25.3-19.24-25.3-35.06C1065.39,3138.31,1083.31,3094.81,1114.69,3094.81z
				 M1084.37,3165.2c0,8.43,2.37,21.61,13.17,21.61c4.48,0,8.7-2.37,12.13-5.01c13.17-10.28,18.72-29.79,18.72-45.87
				c0-8.7-2.38-23.73-13.7-23.73C1094.91,3112.21,1084.37,3149.38,1084.37,3165.2z"/>
			<path class="st0" d="M1176.36,3192.35c-11.33,0-15.81-15.82-15.81-24.78c0-28.47,21.61-65.37,49.03-65.37
				c5.27,0,10.02,2.11,13.44,6.06c0-37.7,20.82-124.95,50.35-124.95c12.65,0,14.76,19.24,14.76,28.47
				c0,36.91-27.15,99.64-44.29,132.86c0,7.64,0.54,40.86,11.35,40.86c24.24,0,41.64-44.81,48.76-44.81c3.17,0,4.49,1.84,4.49,4.22
				c0,3.69-3.17,8.44-5.27,11.6c-11.87,17.66-29.53,42.7-52.21,42.7c-18.19,0-24.24-26.1-26.62-40.07
				C1214.59,3169.94,1191.65,3192.35,1176.36,3192.35z M1175.31,3175.48c0,1.84,0,5.27,2.63,5.27c11.08,0,40.08-29.26,44.82-38.23
				c-0.53-7.64-0.53-15.02-0.53-22.67C1198.51,3119.85,1175.31,3153.59,1175.31,3175.48z M1242.27,3122.75
				c13.96-29.79,34.54-81.72,34.54-114.41c0-1.32,0-7.38-2.64-7.38c-14.77,0-31.9,94.64-31.9,119.15V3122.75z"/>
			<path class="st0" d="M1326.89,3187.34c14.23,0,34.79-30.31,42.7-42.7c1.58-2.37,3.69-5.53,6.59-5.53c3.43,0,3.43,3.16,3.43,5.8
				c0,3.43-5.01,10.55-7.12,13.44c-10.01,14.24-32.43,42.18-51.13,42.18c-20.83,0-24-29.79-24-45.08c0-9.75,2.64-23.2,5.53-32.43
				c3.17-9.49,7.92-16.87,18.99-16.87c3.95,0,6.05,1.58,6.05,5.8c0,7.12-6.05,20.03-7.9,27.94c-1.58,7.65-2.38,15.56-2.38,23.46
				C1317.65,3169.41,1317.92,3187.34,1326.89,3187.34z M1337.43,3075.83c0,6.86-5.54,13.97-12.66,13.97
				c-5.53,0-8.96-4.75-8.96-10.02c0-6.59,5.27-13.97,12.39-13.97C1333.73,3065.81,1337.43,3070.56,1337.43,3075.83z"/>
			<path class="st0" d="M1372.74,3099.82c3.43,0,5.8,2.11,7.92,4.48c13.7,14.77,24.78,44.03,29.25,63.53
				c12.39-22.14,23.73-45.34,38.49-66.17c1.58-2.11,3.69-5.53,6.86-5.53c3.16,0,7.12,2.64,7.12,6.07c0,1.58-1.06,2.64-1.84,3.69
				c-8.18,10.81-46.13,74.87-48.78,85.15c0,0-1.58,8.96-7.9,8.96c-6.86,0-7.92-9.75-7.92-9.75c-4.73-18.98-18.18-59.31-29.78-74.6
				c0,0-3.69-3.43-3.69-5.54C1362.46,3105.62,1368.27,3099.82,1372.74,3099.82z"/>
			<path class="st0" d="M1471.32,3162.3c0-23.72,19.25-74.08,47.72-74.08c9.49,0,14.77,6.59,14.77,15.82
				c0,17.66-24.78,45.6-40.86,51.41c-0.79,3.69-1.31,7.38-1.31,11.07c0,11.86,4.74,19.25,17.13,19.25
				c22.14,0,39.81-18.98,50.35-36.64c1.58-2.64,4.21-6.85,7.9-6.85c1.58,0,3.69,1.05,3.69,2.9c0,3.43-0.78,5.01-2.37,7.91
				c-13.71,23.99-39.01,45.08-67.75,45.08C1479.76,3198.15,1471.32,3181.01,1471.32,3162.3z M1493.73,3145.42
				c11.33-6.85,28.47-24.78,28.47-38.75c0-2.9-1.05-6.07-4.48-6.07C1507.18,3100.61,1495.32,3136.2,1493.73,3145.42z"/>
			<path class="st0" d="M1583.62,3122.23c-5.54,15.29-13.7,35.32-25.31,47.18c-1.84,1.84-4.21,3.96-7.12,3.96
				c-2.11,0-3.43-1.32-3.43-3.43c0-2.11,1.06-3.95,2.38-5.8c10.01-14.5,20.56-29.79,22.67-47.71c-4.73-6.33-6.85-14.23-6.85-22.14
				c0-8.18,5-29.53,15.55-29.53c7.39,0,8.7,15.29,8.7,20.57c0,4.22-0.26,8.44-0.78,12.65c8.16,12.39,31.36,13.44,31.36,36.9
				c0,3.43-0.52,6.86-1.31,10.28c-2.9,12.39-5.26,24.52-5.26,37.17c0,3.43,0,9.75,5,9.75c12.12,0,33.74-27.42,40.59-37.7
				c1.58-2.37,3.96-5.8,6.86-5.8c3.17,0,3.69,2.9,3.69,5.54c0,2.11-1.04,3.95-2.11,5.53c-8.44,13.71-35.07,44.81-51.93,44.81
				c-17.4,0-18.46-24.51-18.46-36.9c0-9.75,1.31-19.24,1.31-29C1599.17,3129.87,1591.27,3124.6,1583.62,3122.23z"/>
			<path class="st0" d="M1725.96,3171.52c0,7.12-1.84,14.23-6.05,20.3c12.12,0,36.9-27.15,43.76-37.43c1.57-2.37,3.96-5.8,6.85-5.8
				c3.17,0,3.96,2.64,3.96,5.27c0,1.84-1.57,3.95-2.38,5.53c-19.77,31.11-42.44,49.29-80.66,49.29c-10.02,0-23.47-1.32-31.12-8.7
				c-1.58-1.58-2.9-3.43-2.9-5.8c0-2.64,1.85-3.95,4.22-3.95c2.11,0,5.27,2.37,4.75,1.84c5.53,4.22,11.85,5.01,18.71,5.01
				c13.97,0,21.35-9.49,21.35-22.93c0-15.82-9.74-38.22-18.45-51.14c-5.01,14.24-15.3,35.85-25.84,46.4
				c-1.57,1.58-4.21,4.22-6.85,4.22c-2.11,0-3.7-1.58-3.7-3.69c0-2.64,1.58-4.74,3.17-6.85c11.87-14.76,21.09-32.16,26.89-50.35
				c-1.58-4.48-2.37-9.22-2.37-13.97c0-10.28,6.86-30.85,19.51-30.85c6.6,0,8.44,8.97,8.44,14.23c0,8.7-2.91,17.93-6.07,26.1
				C1709.62,3128.55,1725.96,3148.85,1725.96,3171.52z"/>
			<path class="st0" d="M1797.93,3187.34c14.23,0,34.79-30.31,42.7-42.7c1.58-2.37,3.69-5.53,6.59-5.53c3.43,0,3.43,3.16,3.43,5.8
				c0,3.43-5.01,10.55-7.12,13.44c-10.01,14.24-32.42,42.18-51.15,42.18c-20.81,0-23.98-29.79-23.98-45.08
				c0-9.75,2.63-23.2,5.53-32.43c3.17-9.49,7.91-16.87,18.99-16.87c3.95,0,6.05,1.58,6.05,5.8c0,7.12-6.05,20.03-7.9,27.94
				c-1.58,7.65-2.38,15.56-2.38,23.46C1788.7,3169.41,1788.97,3187.34,1797.93,3187.34z M1808.48,3075.83
				c0,6.86-5.54,13.97-12.66,13.97c-5.53,0-8.96-4.75-8.96-10.02c0-6.59,5.27-13.97,12.39-13.97
				C1804.78,3065.81,1808.48,3070.56,1808.48,3075.83z"/>
			<path class="st0" d="M1872.26,3117.22c-3.17,5.54-11.07,16.08-11.07,16.08c-0.26,1.32-0.53,4.48-0.53,5.8
				c0,10.54,2.38,50.09,16.61,50.09c16.34,0,35.59-27.94,43.5-40.6c1.31-2.37,3.95-6.06,6.85-6.06c2.11,0,3.69,1.85,3.69,3.96
				c0,3.95-2.11,7.38-4.21,10.81c-10.02,16.87-33.48,47.98-54.83,47.98c-27.41,0-32.68-55.89-32.68-75.66
				c0-17.13,1.04-34.8,4.47-51.67c-1.84,0.53-3.69,0.79-5.53,0.79c-4.21,0-6.33-2.11-6.33-6.33c0-7.12,7.91-8.17,13.44-8.7
				c5.79-18.98,21.09-71.44,45.87-71.44c11.07,0,11.86,15.82,11.86,23.72c0,13.71-1.84,28.21-5.8,41.39
				c6.07-0.79,11.87-2.11,17.93-2.11c2.38,0,3.69,0.79,3.69,3.43s-1.31,3.69-3.43,5.01c-2.64,1.58-17.66,5.27-21.61,6.06
				C1889.92,3085.85,1880.96,3102.98,1872.26,3117.22z M1858.55,3118.01c7.92-10.01,19.78-32.95,23.21-45.34
				c-6.33,1.32-12.66,1.32-18.72,3.16C1859.87,3089.54,1859.61,3104.04,1858.55,3118.01z M1864.62,3061.59
				c7.12-1.05,14.5-1.32,21.61-2.9c4.21-13.45,7.38-31.37,7.38-45.34c0-1.58,0-7.91-2.64-7.91
				C1878.86,3005.45,1865.94,3051.05,1864.62,3061.59z"/>
			<path class="st0" d="M1924.98,3275.39c0-35.33,41.91-70.12,69.06-88.05c0.27-5.01,0.27-10.01,0.27-15.02
				c0-13.71-0.27-27.16-0.79-40.86c-8.7,14.5-43.5,54.3-60.89,54.3c-11.87,0-14.23-11.6-14.23-21.09c0-15.81,4.47-32.42,9.22-47.45
				c1.05-3.42,1.84-6.85,3.43-10.01c2.11-4.22,5.01-7.38,10.01-7.38c5.8,0,11.34,4.75,11.34,10.81c0,4.48-3.96,11.6-5.53,15.81
				c-3.69,9.23-11.08,31.9-11.08,41.39c0,1.58,0,5.54,2.64,5.54c4.21,0,15.29-11.07,18.45-14.23c14.23-14.5,25.84-31.63,38.49-47.72
				c2.37-2.9,5.27-7.38,9.48-7.38c1.85,0,3.7,0.79,5.27,1.84c4.23,2.9,4.23,22.94,4.23,29.26c0,47.19-1.58,101.75-27.43,141.82
				c-8.69,13.45-22.94,26.89-39.8,26.89C1931.05,3303.86,1924.98,3289.36,1924.98,3275.39z M1936.58,3275.91
				c0,6.59,1.84,16.87,10.28,16.87c8.43,0,16.6-9.75,21.35-15.82c13.7-18.45,22.13-55.36,24.51-78.29
				C1970.32,3216.6,1936.58,3244.81,1936.58,3275.91z"/>
		</g>
	</g>
	<g>
		<g>
			<path id="XMLID_56_" class="st0" d="M1796.35,1590.94c-310.29,213.85-739.83,128.9-959.42-189.73
				c-87.26-126.65-128.17-271.16-126.39-412.72c-28.28,166.69,6.64,345.86,111.55,498.05c209.93,304.6,620.59,385.87,917.26,181.4
				c71.63-49.35,130.05-110.92,174.52-180.14C1879.59,1525.95,1840.34,1560.64,1796.35,1590.94z"/>
			<path id="XMLID_55_" class="st1" d="M751.11,803.06c46.7,75.79,50.27,174.7,45.09,244.1c-3.7,49.78-7.54,50.69-10.6,2.01
				c-6.28-99.87-43.74-262.95-213.79-327.94c0,0,138.21,85.62,153.3,193.39c0,0-38.85-15.26-120.89-105.13
				c-30.09-32.95-50.01-58.47-62.4-77.96c-31.19-48.96-24.9-58.81,0.46-55.75C597.72,682.43,707.52,732.24,751.11,803.06z"/>
			<path id="XMLID_54_" class="st1" d="M905.79,479.41c9.61,101.71-74.69,205.94-74.69,205.94s113.54-174.98-6.8-308.61
				c0,0,56.35,92.6,34.29,161.41c0,0-18.36-20.78-40.61-99.03c-8.17-28.71-12.5-49.89-14.17-65.24
				c-4.23-38.6,2.26-42.57,16.24-33.14C850.58,361.36,900.56,424.07,905.79,479.41z"/>
			<path id="XMLID_53_" class="st1" d="M851.62,995.9c-56.64,136.28,33.58,235.37,33.58,235.37s-96.22-222.08,128.89-354.47
				c0,0-122.83,106.17-121.15,210.7c0,0,24.21-13.11,88.56-111.5c23.65-36.09,39.9-62.38,48.76-82.84
				c22.27-51.45-1.89-49.54-25.19-41.63C947.61,871.02,882.44,921.79,851.62,995.9z"/>
			<path id="XMLID_52_" class="st1" d="M903.88,620.34c-88.5,58.79-117.39,193.81-117.39,193.81s66.89-204.42,253.79-196.12
				c0,0-111.78,15.71-152.9,78.16c0,0,28.82,1.01,106.65-32.41c28.57-12.28,48.51-22.65,62.03-31.35
				c33.94-21.84,32.9-29.6,16.09-34.51C1035.47,587.1,952.03,588.36,903.88,620.34z"/>
			<path id="XMLID_51_" class="st1" d="M1903.29,1276.41c-212.44,257.83-593.66,294.57-851.48,82.14
				c-257.77-212.45-294.54-593.67-82.09-851.49c79.09-95.98,181.67-161.3,292.46-194.51c-131.88,30.14-255.23,102.37-347.98,214.87
				c-222.96,270.54-184.38,670.58,86.18,893.53c270.56,222.95,670.61,184.4,893.53-86.16c92.71-112.52,140.06-247.42,144.44-382.64
				C2026.88,1067.29,1982.42,1180.42,1903.29,1276.41z"/>
			<path class="st1" d="M1148.5,249.43c-9.09,7.09-14.85,46.03-26.87,54.31c-8.7,5.99-23.65-7.64-31,1.55
				c-3.59,4.41-3.83,25.55-8.07,32.01c-19,29.29-47.54,19.66-66.39,52.81c26.53,22.95,20.77,75.58,57.45,62.4
				c-1.72-3.29,38.44-16.98,36.81-20.29c31.78,6.72,43.14,27.51,57.45,3.35c8.15-13.64,70.65-20.8,89.88-24.28
				c-3.83-60.53,78.14-7.24,80.34-59.47c8.83-30.48,17.52-19.64,32.24-17.55c40.51,5.75,45.42-25.37,35.08-46.2
				c-3.75-7.58,21.93,12.61,67.3-19.11c30.67-21.48,75.01-36.29,75.01-36.29c-24.21-9.61-49.12-0.98-82.53,12.15
				c-39.43,15.49-69.64,6.86-86.74,1.84c29.03-9.47,39.5-4.49,67.41-22.58c45.56-29.63,57.64-53.52,52.53-63.28
				c-7.99-12.78-24.38,17.59-53.4,32c-20.59,10.19-29.47,13.86-41.92,14.96c0,0-20.38,0.56-8.85-5.85
				c22.77-12.6,37.06-35.1,46.91-45.46c38.45-40.66,52.06-37.06,58.35-50.82c4.97-10.85-54.9,8.52-116.03,63.93
				c-28.03,25.41-20.2-56.72-70.33,21.12c-13.84-2.35-8.16-41.22-23.69-35.86c-21.29,1.68-46.57,74.07-55.24,40.59
				c-12.37-7.91-43.54,12.69-40.7,41.13c0.84,8.1-12.43,40.82-17.94,29.08C1168.44,250.56,1148.5,249.43,1148.5,249.43z"/>
		</g>
		<path class="st3" d="M1817.74,266.95c13.77,1.47,29.64-1.8,47.59-0.78c16.77,0.93,66.66,4.71,56.19,30.6
			c-5.37,13.3-27.51,16.11-39.98,18.42c-44.43,8.13-88.74,5.42-135.67-2.34c11.96,18.34,35.38,20.06,53.32,30.44
			c11.37,6.62,26.75,12.4,40.47,14.29c13.58,1.86,30.76-3.55,45.26,11.08c-0.21,15.11-19.98,22.14-30.48,22.39
			c-5.54,0.13-9.15-3.44-16.34-4.91c-11.85-2.44-24.71-3.73-38.4-10.13c-14.61-6.85-31.89-15-41.75-22.37
			c-7.23-5.43-10.95-14.61-17.3-18.71c-3.28-2.09-7.78-1.79-11.27-3.49c-24.19-11.57-50.97-50.74-44.76-71.24
			c-1.49-3.72-8.69-6.43-11.75-5.22c-1.48,8.23,9.77,10.11,8.26,16.5c-9.41,0.75-22.03-9.82-20.79-17.75
			c4.02-5.87,8.75-9.19,13.8-11.28c-0.99-36.92,28.63-82.22,28.36-119.35c8.38,8.96,4.65,21.62,1.98,31.58
			c-2.69,9.84-8.34,20.11-10.52,29.86c-4.8,21.22-13.36,42.04-9.66,60.78c19.08-16.29,33.46-71.93,57.55-98.25
			c-5.45,38.07-40.21,80.72-48.17,115.39c4.7,3.49,19.71,6.03,24.5,9.92c89.36-42.33,95.75-137.86,165.05-136.2
			c69.25,1.66,99.16,46.13,64.15,76.64c-12.63,11.01-38.79,19.5-61.72,28.13c-25.59,9.61-49.77,19.29-65.51,24.45
			c-0.35,1.06-1.02,0.81-1.75,0.49C1818.14,266.21,1817.95,266.6,1817.74,266.95z"/>
	</g>
</g>
</svg>
