<svg xmlns:ns="&#38;ns_sfw;" xmlns:dc="http://purl.org/dc/elements/1.1/" xmlns:cc="http://creativecommons.org/ns#" xmlns:rdf="http://www.w3.org/1999/02/22-rdf-syntax-ns#" xmlns:svg="http://www.w3.org/2000/svg" xmlns="http://www.w3.org/2000/svg" xml:space="preserve" style="enable-background:new 0 0 800 800;" viewBox="0 0 800 800" y="0px" x="0px" id="Capa_1"><defs id="defs17"></defs>
<style id="style2" type="text/css">
	.st0{fill:#666666;}
	.st1{fill:#F7F8FC;}
</style>
<metadata>
	
</metadata>
<g id="g12">
	<circle id="circle6" r="350.8" cy="449.2" cx="375.8" class="st1"></circle>
	<g id="g10">
		<path id="path8" d="M600.8,638.3v-87.4h43.7c42.2,0,76.4-34.3,76.5-76.5v-10.9h-43.7c-42.2,0.1-76.4,34.3-76.5,76.5v-98.3h43.7    c42.2,0,76.4-34.3,76.5-76.5v-10.9h-43.7c-42.2,0.1-76.4,34.3-76.5,76.5v-98.3h43.7c42.2,0,76.4-34.3,76.5-76.5v-10.9h-43.7    c-42.2,0.1-76.4,34.3-76.5,76.5v-72l10.3-10.3c30-30,30-78.7,0-108.7l-21.2-21.2l-21.2,21.2c-30,30-30,78.7,0,108.7l10.3,10.3v72    c0-42.2-34.3-76.4-76.5-76.5h-43.7v10.9c0.1,42.2,34.3,76.4,76.5,76.5h43.7v98.3c0-42.2-34.3-76.4-76.5-76.5h-43.7v10.9    c0.1,42.2,34.3,76.4,76.5,76.5h43.7v98.3c0-42.2-34.3-76.4-76.5-76.5h-43.7v10.9c0.1,42.2,34.3,76.4,76.5,76.5h43.7v87.4H316.7    v-87.4h43.7c42.2,0,76.4-34.3,76.5-76.5v-10.9h-43.7c-42.2,0.1-76.4,34.3-76.5,76.5v-98.3h43.7c42.2,0,76.4-34.3,76.5-76.5v-10.9    h-43.7c-42.2,0.1-76.4,34.3-76.5,76.5v-98.3h43.7c42.2,0,76.4-34.3,76.5-76.5v-10.9h-43.7c-42.2,0.1-76.4,34.3-76.5,76.5v-98.3    h43.7c42.2,0,76.4-34.3,76.5-76.5v-10.9h-43.7c-42.2,0.1-76.4,34.3-76.5,76.5v-72l10.3-10.3c30-30,30-78.7,0-108.7L305.7,0    l-21.2,21.2c-30,30-30,78.7,0,108.7l10.3,10.3v72c0-42.2-34.3-76.4-76.5-76.5h-43.7v10.9c0.1,42.2,34.3,76.4,76.5,76.5h43.7v98.3    c0-42.2-34.3-76.4-76.5-76.5h-43.7v10.9c0.1,42.2,34.3,76.4,76.5,76.5h43.7v98.3c0-42.2-34.3-76.4-76.5-76.5h-43.7v10.9    c0.1,42.2,34.3,76.4,76.5,76.5h43.7v98.3c0-42.2-34.3-76.4-76.5-76.5h-43.7v10.9c0.1,42.2,34.3,76.4,76.5,76.5h43.7v87.4H120v21.9    h655.6v-21.9H600.8z M677.2,485.3H698c-5.2,25.4-27.6,43.7-53.5,43.7h-20.8C628.9,503.6,651.3,485.3,677.2,485.3L677.2,485.3z     M677.2,376H698c-5.2,25.4-27.6,43.7-53.5,43.7h-20.8C628.9,394.3,651.3,376.1,677.2,376L677.2,376z M677.2,266.8H698    c-5.2,25.4-27.6,43.7-53.5,43.7h-20.8C628.9,285.1,651.3,266.8,677.2,266.8L677.2,266.8z M535.2,310.5c-26,0-48.3-18.3-53.5-43.7    h20.8c26,0,48.3,18.3,53.5,43.7H535.2z M535.2,419.7c-26,0-48.3-18.3-53.5-43.7h20.8c26,0,48.3,18.3,53.5,43.7H535.2z M535.2,529    c-26,0-48.3-18.3-53.5-43.7h20.8c26,0,48.3,18.3,53.5,43.7H535.2z M393.1,485.3h20.8c-5.2,25.4-27.6,43.7-53.5,43.7h-20.8    C344.8,503.6,367.2,485.3,393.1,485.3L393.1,485.3z M393.1,376h20.8c-5.2,25.4-27.6,43.7-53.5,43.7h-20.8    C344.8,394.3,367.2,376.1,393.1,376L393.1,376z M393.1,266.8h20.8c-5.2,25.4-27.6,43.7-53.5,43.7h-20.8    C344.8,285.1,367.2,266.8,393.1,266.8L393.1,266.8z M393.1,157.5h20.8c-5.2,25.4-27.6,43.7-53.5,43.7h-20.8    C344.8,175.8,367.2,157.5,393.1,157.5L393.1,157.5z M251.1,201.2c-26,0-48.3-18.3-53.5-43.7h20.8c26,0,48.3,18.3,53.5,43.7H251.1z     M251.1,310.5c-26,0-48.3-18.3-53.5-43.7h20.8c26,0,48.3,18.3,53.5,43.7H251.1z M251.1,419.7c-26,0-48.3-18.3-53.5-43.7h20.8    c26,0,48.3,18.3,53.5,43.7H251.1z M251.1,529c-26,0-48.3-18.3-53.5-43.7h20.8c26,0,48.3,18.3,53.5,43.7H251.1z M305.7,120.2    l-5.7-5.7c-10.4-10.3-16.2-24.3-16.1-38.9c0-14.6,5.8-28.6,16.1-38.9l5.7-5.7l5.7,5.7c21.5,21.5,21.5,56.3,0,77.8L305.7,120.2z     M589.8,229.5l-5.7-5.7c-10.4-10.3-16.2-24.3-16.1-38.9c0-14.6,5.8-28.6,16.1-38.9l5.7-5.7l5.7,5.7c21.5,21.5,21.5,56.3,0,77.8    L589.8,229.5z M589.8,229.5" class="st0"></path>
	</g>
</g>
</svg>