<?xml version="1.0" encoding="utf-8"?>
<!-- Generator: Adobe Illustrator 24.1.1, SVG Export Plug-In . SVG Version: 6.00 Build 0)  -->
<!DOCTYPE svg PUBLIC "-//W3C//DTD SVG 1.1//EN" "http://www.w3.org/Graphics/SVG/1.1/DTD/svg11.dtd" [
	<!ENTITY ns_extend "http://ns.adobe.com/Extensibility/1.0/">
	<!ENTITY ns_ai "http://ns.adobe.com/AdobeIllustrator/10.0/">
	<!ENTITY ns_graphs "http://ns.adobe.com/Graphs/1.0/">
	<!ENTITY ns_vars "http://ns.adobe.com/Variables/1.0/">
	<!ENTITY ns_imrep "http://ns.adobe.com/ImageReplacement/1.0/">
	<!ENTITY ns_sfw "http://ns.adobe.com/SaveForWeb/1.0/">
	<!ENTITY ns_custom "http://ns.adobe.com/GenericCustomNamespace/1.0/">
	<!ENTITY ns_adobe_xpath "http://ns.adobe.com/XPath/1.0/">
]>
<svg version="1.1" id="Capa_1" xmlns:x="&ns_extend;" xmlns:i="&ns_ai;" xmlns:graph="&ns_graphs;"
	 xmlns="http://www.w3.org/2000/svg" xmlns:xlink="http://www.w3.org/1999/xlink" x="0px" y="0px" viewBox="0 0 831.6 825.1"
	 style="enable-background:new 0 0 831.6 825.1;" xml:space="preserve">
<style type="text/css">
	.st0{fill:#FFFFFF;}
</style>
<metadata>
	<sfw  xmlns="&ns_sfw;">
		<slices></slices>
		<sliceSourceBounds  bottomLeftOrigin="true" height="795.9" width="795.9" x="5" y="-797.7"></sliceSourceBounds>
	</sfw>
</metadata>
<g>
	<path class="st0" d="M199.7,161.5c6.4,0,11.7-5.2,11.7-11.7c0-6.4-5.2-11.7-11.7-11.7c-6.4,0-11.7,5.2-11.7,11.7
		C188,156.2,193.2,161.5,199.7,161.5L199.7,161.5z M106.4,161.5c6.4,0,11.7-5.2,11.7-11.7c0-6.4-5.2-11.7-11.7-11.7
		c-6.4,0-11.7,5.2-11.7,11.7C94.8,156.2,100,161.5,106.4,161.5L106.4,161.5z M153,161.5c6.4,0,11.7-5.2,11.7-11.7
		c0-6.4-5.2-11.7-11.7-11.7c-6.4,0-11.7,5.2-11.7,11.7C141.4,156.2,146.6,161.5,153,161.5L153,161.5z M150.5,285c0.1,0,0.1,0,0.2,0
		l105.4,0h0c7.3,0,13.5-4.7,15.4-11.7c1.9-7-1-14.2-7.3-17.9l-16-9.5c25.8-25.5,40.3-60.4,40-96.9C287.8,75.9,228,15.7,155,14.6
		C79.4,13.5,17.8,74.7,17.8,149.8C17.8,221.8,77.2,283.4,150.5,285L150.5,285z M74.5,70.1c21.5-21.2,49.9-32.6,80.2-32.2
		c60.4,0.9,109.8,50.7,110.2,111.1c0.2,32.6-13.8,63.6-38.4,85c-4.1,3.6-6.3,9-5.8,14.4c0.5,5.4,3.6,10.3,8.3,13.1l0.1,0.1l-78.4,0
		c-60.6-1.2-109.7-51.1-109.7-111.8C41.2,119.6,53,91.3,74.5,70.1L74.5,70.1z M802.1,787.2h-11.7V613.6c0-45.5-26.9-86.8-68.6-105.3
		l-61.4-26.3c15-4.7,28.5-13.1,39.4-24.8c16.6-17.6,26.1-41.5,26.1-65.5c0-22.1-7.7-43-22.3-60.3c-18.3-21.7-28.3-49.3-28.3-77.6
		v-55.9c0-48.9-19.1-94.9-53.7-129.5C587,33.7,541,14.6,492.1,14.6c-101,0-183.2,82.2-183.2,183.2v54.1c0,29.4-11.5,57.4-30.3,80
		c-23.6,28.4-28.5,66.9-12.8,100.3c11.7,24.8,32.7,42.7,57.9,50.2l-61,26.5c-42.8,18-70.5,59.7-70.5,106.1v137.2
		c0,6.4,5.2,11.7,11.7,11.7c6.4,0,11.7-5.2,11.7-11.7V615c0-37,22.1-70.2,56.3-84.7l76.5-33.3v70.2h-35.1c-9.9,0-19.4,4.2-26,11.6
		c-6.6,7.4-9.8,17.2-8.8,27.1l19.2,181.3H29.5c-6.4,0-11.7,5.2-11.7,11.7c0,6.4,5.2,11.7,11.7,11.7h772.6c6.4,0,11.7-5.2,11.7-11.7
		C813.8,792.4,808.5,787.2,802.1,787.2L802.1,787.2z M685.8,346.3c11,13.1,16.8,28.8,16.8,45.3c0,18.2-7.2,36.2-19.7,49.5
		c-13.3,14.1-31.5,21.9-51.4,21.9h-15.2l-20-8.5c-17.4-7.5-29.4-23.5-31.8-42c36-19.4,60.5-57.4,60.5-101v-87.6
		c3.4,0.2,6.8,0.4,10.2,0.4c5.6,0,11.2-0.3,16.7-0.9v30.4C651.9,287.5,664,320.4,685.8,346.3L685.8,346.3z M494.9,530.4
		c-41.7,0.7-83.1-4.5-123.3-15.7v-27.8l3.4-1.5c0,0,0,0,0.1,0l20.8-9c23.1-10.1,39.5-30.7,44.5-54.8c10.2,3,20.9,4.6,32,4.6h38
		c11.1,0,21.9-1.6,32.1-4.6c5.1,24,21.6,44.4,44.7,54.4l22.2,9.5c0,0,0,0,0,0l1.6,0.7v26.2C573.3,523.6,534.3,529.7,494.9,530.4
		L494.9,530.4z M611,536.7v30.6H371.6v-28.4c37.8,9.9,76.6,14.9,115.7,14.9c2.7,0,5.3,0,8-0.1C534.5,553,573.3,547.3,611,536.7
		L611,536.7z M651.9,199.8c-32.1,4.3-68.3-4.3-93.3-23.6c-5.1-3.9-12.4-3-16.4,2.1c-3.9,5.1-3,12.4,2.1,16.4
		c16.3,12.6,36,21.5,57.3,26v63.5c-5.6,12.8-11.8,23.4-25.9,35c-5.9,4.9-12.4,8.9-19.3,12.2c-5.7-11.1-17.2-18.6-30.4-18.6h-27.3
		c-18.8,0-34.2,15.3-34.2,34.2s15.3,34.2,34.2,34.2H526c15.9,0,29.2-10.9,33.1-25.5c15.6-5.9,41-27.1,41-27.2
		c-7.9,42.4-45.1,74.6-89.8,74.6h-38c-50.4,0-91.3-41-91.3-91.3v-90.1c39.6-6.2,77-19.6,111.3-39.9c52.2-30.9,85.7-71.3,106-103.2
		C632.9,109.1,652.6,153.3,651.9,199.8L651.9,199.8z M536.9,346.8c0,6-4.9,10.8-10.9,10.8h-27.3c-6,0-10.9-4.9-10.9-10.9
		c0-6,4.9-10.9,10.9-10.9H526C532,335.9,536.8,340.8,536.9,346.8L536.9,346.8z M332.2,197.8c0-88.1,71.7-159.8,159.8-159.8
		c31.6,0,61.8,9.1,87.6,26.1c-18.6,29.8-49.9,68.2-99.3,97.4c-33.9,20-71,32.8-110.4,38h-0.7c0,0,0,0,0,0s0,0,0,0h-37.1V197.8z
		 M286.9,422.2c-11.8-25.2-8.1-54.1,9.6-75.5c22.3-26.8,35.7-60,35.7-94.9v-29.1h25.4v88.8c0,43.7,24.5,81.7,60.5,101.1
		c-2.3,18.6-14.1,34.8-31.6,42.4l-18.5,8h-16.9C323.4,463,298.8,447.4,286.9,422.2L286.9,422.2z M692.8,603.4l-19.5,183.8H321.1
		l-19.5-183.8c-0.3-3.3,0.7-6.5,2.9-9c2.2-2.5,5.3-3.9,8.7-3.9h368c3.3,0,6.4,1.4,8.7,3.9C692.1,596.9,693.2,600.1,692.8,603.4
		L692.8,603.4z M767.1,787.2h-70.3L716,605.9c1-9.9-2.2-19.7-8.8-27.1c-6.6-7.4-16.1-11.6-26-11.6h-46.9v-71.1l78.2,33.5
		c33.2,14.7,54.6,47.6,54.6,83.9V787.2z M497.2,644.6c-24.4,0-44.3,19.9-44.3,44.3c0,24.4,19.9,44.3,44.3,44.3
		c24.4,0,44.3-19.9,44.3-44.3C541.5,664.4,521.6,644.6,497.2,644.6L497.2,644.6z M497.2,709.9c-11.6,0-21-9.4-21-21
		c0-11.6,9.4-21,21-21s21,9.4,21,21C518.2,700.4,508.8,709.9,497.2,709.9L497.2,709.9z M497.2,709.9"/>
</g>
</svg>
