<svg xmlns:ns="&#38;ns_sfw;" xmlns:dc="http://purl.org/dc/elements/1.1/" xmlns:cc="http://creativecommons.org/ns#" xmlns:rdf="http://www.w3.org/1999/02/22-rdf-syntax-ns#" xmlns:svg="http://www.w3.org/2000/svg" xmlns="http://www.w3.org/2000/svg" xml:space="preserve" style="enable-background:new 0 0 800 800;" viewBox="0 0 800 800" y="0px" x="0px" id="Capa_1"><defs id="defs21"></defs>
<style id="style2" type="text/css">
	.st0{fill:#FFFFFF;}
</style>
<metadata>
	
</metadata>
<g id="g16">
	<path id="path6" d="M608.5,616.3L466.7,474.5V280c0-7.4-6-13.3-13.3-13.3h-40v-13.3h40c73.6-0.1,133.3-59.7,133.3-133.3   c0-7.4-6-13.3-13.3-13.3H520c-51.2,0.1-97.8,29.5-120,75.6c-22.2-46.1-68.8-75.5-120-75.6h-53.3c-7.4,0-13.3,6-13.3,13.3   c0.1,73.6,59.7,133.3,133.3,133.3h40v13.3h-40c-7.4,0-13.3,6-13.3,13.3v194.5L227.8,580c-0.4,0-0.7,0-1.1,0v1.1l-35.1,35.1   c-20.2,20.1-31.6,47.5-31.5,76.1v40.9c0,36.8,29.9,66.6,66.7,66.7h346.7c36.8,0,66.6-29.9,66.7-66.7v-40.9   C640.1,663.8,628.7,636.4,608.5,616.3L608.5,616.3z M520,133.3h39.2c-6.8,53.3-52.1,93.3-105.8,93.3H444l83.4-55.6l-14.8-22.2   L417,212.6C429.4,165.9,471.7,133.4,520,133.3L520,133.3z M356,226.7h-9.3c-53.7-0.1-99-40-105.8-93.3H280   c48.3,0.1,90.6,32.6,103,79.3l-95.6-63.7l-14.8,22.2L356,226.7z M413.3,293.3H440V480c0,3.5,1.4,6.9,3.9,9.4l125.9,125.9   c-8.8-3.4-17.1-7.8-24.8-13.2c-20.1-14.8-44.5-22.6-69.4-22.1c-22-0.6-43.7,5.5-62.2,17.5V293.3z M356.1,489.4   c2.5-2.5,3.9-5.9,3.9-9.4V293.3h26.7v319.8c-11.2,4.9-23.4,7.2-35.6,6.9c-19.8,0.4-39.2-5.9-55-17.9c-10.8-7.6-22.7-13.4-35.2-17.5   L356.1,489.4z M613.3,733.3c0,22.1-17.9,40-40,40H226.7c-22.1,0-40-17.9-40-40v-40.9c-0.1-21.5,8.5-42.1,23.7-57.2l27.9-27.9   c15.7,1.8,30.7,7.8,43.4,17.3c20.1,14.8,44.5,22.6,69.4,22.1c12.1,0.1,24.1-1.6,35.6-5.1v25.1h-13.3c-36.8,0-66.6,29.9-66.7,66.7   h26.7c0-22.1,17.9-40,40-40h13.3v40h26.7v-40h13.3c22.1,0,40,17.9,40,40h26.7c0-36.8-29.9-66.6-66.7-66.7h-13.3v-37.6   c2.5-1.5,4.8-3,7.2-4.5c32.8-23.8,77.2-23.8,110.1,0c19.9,14.6,43.9,22.4,68.6,22.1c9.3,13.4,14.2,29.4,14.2,45.7V733.3z    M613.3,733.3" class="st0"></path>
	<path id="path8" d="M122.9,581.8l-21.3,16c6.3,8.4,13.1,16.6,20.1,24.5l19.9-17.8C135.1,597.2,128.8,589.5,122.9,581.8   L122.9,581.8z M122.9,581.8" class="st0"></path>
	<path id="path10" d="M626.8,76.8C561.7,27,482,0,400,0C193.8,0,26.7,167.1,26.6,373.3c0,72.5,21.1,143.4,60.7,204l22.3-14.6   C4.9,402.4,50,187.5,210.3,82.8C370.7-21.9,585.5,23.2,690.3,183.5c78.8,120.7,74.8,277.6-10.2,394v-30.9h-26.7v66.7   c0,7.4,6,13.3,13.3,13.3h66.7V600h-36.8C821.8,436.3,790.6,202,626.8,76.8L626.8,76.8z M626.8,76.8" class="st0"></path>
	<path id="path12" d="M620.9,180.3l-20.1,17.5c88,100.7,87.9,250.9-0.3,351.4l20,17.6C717.5,456.3,717.7,291,620.9,180.3   L620.9,180.3z M620.9,180.3" class="st0"></path>
	<path id="path14" d="M185.8,491.4l-6.4,31.5c-68.2-100.2-60.1-233.8,19.7-325l-20.1-17.6c-86.1,98.4-96.5,242-25.4,351.7l-30.2-8   l-6.9,25.7l66.7,17.8c1.1,0.3,2.3,0.5,3.4,0.5c6.3,0,11.8-4.5,13.1-10.7l12.2-60.7L185.8,491.4z M185.8,491.4" class="st0"></path>
</g>
</svg>