<svg xmlns:ns="&#38;ns_sfw;" xmlns:dc="http://purl.org/dc/elements/1.1/" xmlns:cc="http://creativecommons.org/ns#" xmlns:rdf="http://www.w3.org/1999/02/22-rdf-syntax-ns#" xmlns:svg="http://www.w3.org/2000/svg" xmlns="http://www.w3.org/2000/svg" xml:space="preserve" style="enable-background:new 0 0 800 800;" viewBox="0 0 800 800" y="0px" x="0px" id="Capa_1"><defs id="defs13"></defs>
<style id="style2" type="text/css">
	.st0{fill:#FFFFFF;}
</style>
<metadata>
	
</metadata>
<g id="g8">
	<path id="path6" d="M623.6,413c-1.8-6.3-6.5-11.4-12.8-13.7c-1.3-0.5-11.5-4.1-27.4-6.4c67.9-72.3,45.5-156.7,40.2-173.2   c-1.8-6.3-6.5-11.4-12.8-13.7c-2.9-1.1-53.8-19-111.7,1.2c3.3-13.4,5.2-28.2,5.2-44.4c0-103.6-78.4-149.1-94.2-157.2   c-5.7-3.1-12.7-3.4-18.7-0.6C387.5,6.9,296,50.7,296,162.9c0,16.2,1.9,31,5.2,44.4c-58-20.3-109-2.3-111.9-1.2   c-6.3,2.3-11,7.4-12.8,13.7c-5.3,16.5-27.7,100.9,40.2,173.2c-15.9,2.3-26.1,6-27.4,6.4c-6.3,2.3-11,7.4-12.8,13.7   c-5.4,16.8-28.7,104.5,44.6,177.7c42.4,42.4,89.4,52.5,124.7,52.5c13,0,24.4-1.4,33.4-3v135.9c0,11.5,9.3,20.8,20.8,20.8   c11.5,0,20.8-9.3,20.8-20.8V640.1c9,1.7,20.5,3.1,33.7,3.1c35.2,0,82.3-10.1,124.7-52.5C652.2,517.5,629,429.9,623.6,413L623.6,413   z M379.1,575.5c-0.5,9.4-1.8,17.4-3,23.1c-22.2,4.9-77.8,10.8-125.7-37.1c-47.2-47.2-42.3-101.8-37-125.7c14-3,41.2-6.4,71.3,3.4   c2,0.7,4,1.5,5.9,2.1c16,6.1,32.5,15.9,48.3,31.7c30,29.9,38.9,62.9,40.2,88.8V575.5z M379.1,382.2c-0.5,9.4-1.8,17.3-3,23.1   c-13.8,3.1-40.3,6.5-69.9-2.8c-3-1.2-6-2.2-9-3.2c-15.5-6.1-31.5-15.9-46.8-31.2c-47.2-47.2-42.3-101.8-37-125.7   c22.2-4.8,77.9-10.5,125.6,37.1c0.3,0.3,0.6,0.6,0.9,0.9c1.8,2,3.6,4,5.5,5.9c24.9,28.1,32.6,58,33.8,82V382.2z M400.1,278   c-6.5-4.2-15.9-11.1-25.4-21c-1-1.1-2-2.1-3-3.2c-17.4-19.3-34.3-48.8-34.3-90.9c0-67.7,43.3-102.8,62.5-115.1   c20.5,13.1,62.7,48.3,62.7,115.1c0,39.7-14.9,68.2-31.1,87.4c-3.4,3.4-6.5,6.8-9.5,10.2C413.8,268.5,405.9,274.3,400.1,278   L400.1,278z M420.7,375.4c0-24.4,6.3-56.6,32.1-86.9c3.1-3,6.1-6.3,9.2-9.8c47.7-46.9,102.6-41.1,124.6-36.3   c5.2,23.8,10.2,78.5-37,125.7c-15.2,15.2-31.3,25-46.7,31.2c-3,1-6.1,2-9.1,3.2c-29.6,9.2-56.1,5.8-69.8,2.8   c-1.5-6.9-3.2-17.1-3.2-29.3C420.7,375.8,420.7,375.6,420.7,375.4L420.7,375.4z M549.6,561.4c-47.9,47.9-103.5,42.1-125.6,37.1   c-4.8-22.1-10.7-77.9,37.1-125.7c15.3-15.3,31.3-25.1,46.8-31.2c3-1,5.9-2,8.9-3.2c29.5-9.2,56-5.9,69.8-2.8   C591.9,459.5,596.9,514.1,549.6,561.4L549.6,561.4z M549.6,561.4" class="st0"></path>
</g>
</svg>