<svg xmlns:ns="&#38;ns_sfw;" xmlns:dc="http://purl.org/dc/elements/1.1/" xmlns:cc="http://creativecommons.org/ns#" xmlns:rdf="http://www.w3.org/1999/02/22-rdf-syntax-ns#" xmlns:svg="http://www.w3.org/2000/svg" xmlns="http://www.w3.org/2000/svg" xml:space="preserve" style="enable-background:new 0 0 800 800;" viewBox="0 0 800 800" y="0px" x="0px" id="Capa_1"><defs id="defs17"></defs>
<style id="style2" type="text/css">
	.st0{fill:#666666;}
	.st1{fill:#92BF35;}
</style>
<metadata>
	
</metadata>
<g id="g12">
	<path id="path6" d="M730.8,527.3l-56.7,18.9c-5.9-17.7-19.7-31.6-37.3-37.7c-5.1-33.7-35-57.9-69-56   c-22-35.3-61.8-55.6-103.3-52.6c-4.5-17.6-17.7-31.6-35-37.2c12.3-40.1,34.4-76.6,64.1-106.2c1.6,1.8,3.1,3.7,4.8,5.5   c26.6,27.1,62.8,42.5,100.8,42.7c2.7,0,5.4-0.1,8-0.2c34.2-1.6,66-18.2,86.7-45.4c57.4-75.6,99.7-227.4,101.5-233.8   c1-3.7,0.4-7.6-1.7-10.8c-2.1-3.2-5.5-5.3-9.3-5.8c-7.8-1-191.6-24.1-283.4,53.5c-6.5,5.5-12.4,11.6-17.6,18.4   c-36.2-10-73.9-13-111.2-9c-3.9,0.5-7.4,2.6-9.5,5.9c-2.1,3.3-2.7,7.4-1.6,11.1c0.9,2.9,21.8,70.4,50.7,104.3   c12.8,14.5,31.3,22.6,50.6,22.2c1.9,0,3.8-0.1,5.7-0.3c2.7,6.8,6,13.5,9.7,19.8c-35.9,34.8-61.9,78.6-75.2,126.8   c-12.5,2.6-23.6,9.7-31.3,19.8c-36.3-16-78.8-7-105.4,22.4c-7.8-2.6-15.9-3.9-24.1-3.9c-38.6,0.1-71.5,27.9-78,66h-24.4   c-11-16.5-29.5-26.4-49.3-26.4H63.6c-32.8,0-59.3,26.6-59.4,59.4V736c0,32.8,26.6,59.3,59.4,59.4H90c13.4-0.1,26.4-4.7,36.9-13.2   h343.1c19.4,0,38.3-5.3,54.9-15.4l247.3-150.5c21.4-13.1,29.6-40.2,19.1-62.9C780.6,530.5,754.6,519.3,730.8,527.3L730.8,527.3z    M483.8,154.1c0.8-27.7,13.2-53.7,34.1-71.8c50.5-42.6,136.3-51.1,196.2-51.1c21.4,0,39.5,1.1,51.4,2   c-12.2,40.3-48.4,151.6-92.6,209.8c-16.2,21-40.8,33.9-67.3,35c-33,1.7-65.2-10.8-88.3-34.5c-1.7-1.7-3.2-3.6-4.8-5.5   c27.6-25.1,58.3-46.6,91.3-64.1c6.5-3.2,9.3-11.1,6-17.7c-3.2-6.5-11.1-9.3-17.7-6c-34.2,17.7-66,39.7-94.7,65.4   C487.6,196.6,482.9,175.4,483.8,154.1L483.8,154.1z M457.5,152.8c-0.5,12,0.5,23.9,2.9,35.6c-10.9-0.1-21.2-4.8-28.5-12.8   c-17.4-24.1-30.9-50.8-40.2-79.1c26.1-1.5,52.3,0.9,77.7,7.3C462.3,119.2,458.2,135.8,457.5,152.8L457.5,152.8z M122.9,736   c0,18.2-14.8,33-33,33H63.6c-18.2,0-33-14.8-33-33V498.5c0-18.2,14.8-33,33-33H90c18.2,0,33,14.8,33,33V736z M241.7,426   c7.8,0,15.5,1.8,22.5,5.3c5.8,2.7,12.6,1,16.4-4.2c20.3-28.4,59.2-35.9,88.7-17.2c3.3,2.1,7.5,2.6,11.2,1.4   c3.8-1.2,6.8-4.1,8.2-7.8c3.7-9.8,13-16.5,23.5-16.9c0.4,0,0.7,0.1,1.1,0.1c0.3,0,0.6-0.1,1-0.2c13.9,0.4,25.1,11.7,25.4,25.6   c0,0.4-0.2,1.6-0.2,2c-0.2,4.1,1.4,8.1,4.5,10.7c3.1,2.7,7.3,3.8,11.3,2.9c5.7-1.2,11.5-1.7,17.3-1.7c32.2,0,61.7,18,76.3,46.8   c2.7,5.3,8.7,8.1,14.5,6.9c11.6-2.4,23.6,0.5,32.8,7.9c9.2,7.4,14.7,18.4,14.9,30.2c0,0.4-0.1,0.9-0.1,1.2   c0,6.6,4.8,12.1,11.3,13.1c12.4,1.8,22.7,10.5,26.6,22.5l-162.4,54.1c-4,1.3-8.3,2-12.5,2h-7.6c6.3-17.2,4.5-36.3-4.9-52l-1.2-1.9   c-14.3-23.8-40.1-38.4-67.9-38.4h-69c-24.3,0-48-8.3-67-23.5c-19.1-15.2-42-24.9-66.1-28C195.9,443,217.2,426,241.7,426L241.7,426z    M769,578.5c-1.2,6.4-5.1,11.9-10.6,15.3L511.1,744.3c-12.4,7.6-26.6,11.5-41.2,11.5H145.7c2.3-6.3,3.6-13,3.6-19.8V498.5   c-0.1-2.2-0.3-4.4-0.7-6.6h24.4c24.3,0,48,8.3,67,23.5c23.7,18.9,53.1,29.2,83.5,29.3h69c18.5,0,35.7,9.8,45.3,25.6l1.2,1.9   c7.2,12,6.4,27.2-2,38.4h-80.2c-26.1,0-51.5,7.7-73.2,22.2l-9.7,6.4c-3.9,2.6-6.2,7.1-5.9,11.8c0.3,4.7,3.1,8.9,7.3,11   c4.2,2.1,9.3,1.8,13.2-0.9l9.7-6.4c17.3-11.6,37.7-17.7,58.5-17.7h117.3c7.1,0,14.1-1.1,20.9-3.4l168.3-56.1c0.2,0,0.4,0.1,0.6,0.1   c3,0,5.8-1.1,8.1-3l67.2-22.4c9.4-3.1,19.8,0.1,25.7,8.1C768.7,565.5,770.3,572.1,769,578.5L769,578.5z M769,578.5" class="st0"></path>
	<path id="path8" d="M305.7,478.5c7.1,1.4,14.1-3.2,15.6-10.3c1.9-9.2,10-15.8,19.4-15.8c4.3,0,8.4,1.4,11.9,3.9   c5.8,4.3,14.1,3.2,18.4-2.6c4.4-5.8,3.2-14.1-2.6-18.4c-8-6-17.7-9.3-27.7-9.2c-21.9,0-40.8,15.5-45.3,37   C293.9,470.1,298.5,477,305.7,478.5L305.7,478.5z M305.7,478.5" class="st0"></path>
	<path id="path10" d="M446.9,482.9c4.2,2.1,9.3,1.8,13.2-0.8c7.9-5.2,18.2-4.1,24.9,2.5c3,3,5,6.9,5.6,11.2   c0.9,6.5,6.5,11.3,13,11.3c0.6,0,1.3,0,1.9-0.1c7.2-1,12.2-7.7,11.2-14.9c-2.2-15.7-12.4-29.1-26.8-35.6   c-14.4-6.5-31.2-5.1-44.4,3.6c-3.9,2.6-6.2,7.1-5.9,11.8C439.9,476.6,442.7,480.8,446.9,482.9L446.9,482.9z M446.9,482.9" class="st0"></path>
</g>
</svg>