<svg xmlns:ns="&#38;ns_sfw;" xmlns:dc="http://purl.org/dc/elements/1.1/" xmlns:cc="http://creativecommons.org/ns#" xmlns:rdf="http://www.w3.org/1999/02/22-rdf-syntax-ns#" xmlns:svg="http://www.w3.org/2000/svg" xmlns="http://www.w3.org/2000/svg" xml:space="preserve" style="enable-background:new 0 0 800 800;" viewBox="0 0 800 800" y="0px" x="0px" id="Capa_1"><defs id="defs17"></defs>
<style id="style2" type="text/css">
	.st0{fill:#FFFFFF;}
</style>
<metadata>
	
</metadata>
<g id="g12">
	<g id="g10">
		<path id="path6" d="M368.8,685.1c-26.8,19.5-64.3,29.3-111.8,29.3c-7.2,0-13.1,5.9-13.1,13.1c0,7.2,5.9,13.1,13.1,13.1    c53.1,0,95.9-11.5,127.3-34.3c5.9-4.3,7.1-12.5,2.9-18.3C382.8,682.1,374.6,680.8,368.8,685.1L368.8,685.1z M368.8,685.1" class="st0"></path>
		<path id="path8" d="M694.1,242c0.9-43.6-4.8-128.6-58.5-180.6C577.3,4.7,481.3,5.7,442.6,8.8c-16.2,0.7-29,13.8-29.6,29.9    c-2,39.2,0,134.7,57.9,191.5c46.7,45.2,117.7,53.7,163.5,53.7h11.6c8.7,16.2,16,33.2,21.8,50.6c1.6,5.3,2.7,10.7,3.3,16.2    c-10.4-1.9-20.4-5.9-29.4-11.5l-5-3.1c-7-4.6-14.4-8.7-22.1-12.2c-52.7-23.8-114.5-13.8-156.9,25.4c-2-6.8-4.4-13.5-7.3-20    c-1.6-3.1-4.3-5.5-7.6-6.6c-3.3-1.1-6.9-0.8-10,0.8c-6.1,3.2-8.8,10.5-6,16.9c-90.1-22.8-206.4-32-288.4,26.4    C30.6,445.1,20.6,623.1,20.6,696c0.1,28,18.1,52.9,44.7,61.7c61.6,21.4,126.2,33.1,191.5,34.7c55.7,0,112.6-11,158.1-43.9    c84.7-61.5,109.1-184,115.5-265.6l2.5,3.1c2.5,3.6,6.5,5.7,10.8,5.6c2.6,0,5.2-0.8,7.3-2.2c5.9-4,7.5-12.1,3.5-18    c-7.4-10.5-17.3-19.1-28.8-25l-2-1.2c-5.6-2.9-11.4-5.4-17.4-7.4c3.8-2.4,7.6-4.6,11.6-6.5c9.8-5.1,21-6.9,31.9-5    c8.7,2.8,16.8,7.2,23.8,13.1c3.1,2.4,6.4,4.7,9.7,6.8c11.5,7.6,23.8,13.8,36.8,18.6c15.2,5.3,31.1,8.1,47.2,8.2    c37,1,72.1-16.9,92.9-47.5c20.9-30.6,24.7-69.7,10.2-103.8C756,286.3,728.7,258,694.1,242L694.1,242z M489.8,211.9    c-50.6-49.3-51.9-136.1-50.6-171.3c-0.1-1.4,0.4-2.7,1.4-3.7c0.9-1,2.2-1.5,3.6-1.5c8.1-1,17.5-1,28.5-1    c41.8,0,104.6,7.5,144.8,46.4c40.1,39,48.9,99.5,50.3,141.4c-22.2-39.2-67.9-98.3-156.9-147c-4.1-2.3-9.2-2.3-13.2,0.1    c-4.1,2.4-6.6,6.8-6.5,11.5c0,4.7,2.6,9.1,6.7,11.4c104.6,57.3,145,128.7,158.1,159.6C618.2,260,537.8,258.6,489.8,211.9    L489.8,211.9z M399.9,727.4c-98.5,71.3-260.8,27.9-325.9,5.9c-16.1-5.2-27.1-20.2-27.2-37.1c0-68.8,9-236.5,107.2-307.6    c81.7-59.2,209.2-38.6,282-19.1c4.1,21.8,1.1,44.4-8.5,64.3c-2,4-1.8,8.9,0.5,12.7c2.4,3.9,6.6,6.2,11.1,6.2    c22.7,0.3,45.2,4.8,66.3,13.1C501.1,541.5,481.4,668.2,399.9,727.4L399.9,727.4z M745.2,399.7c-15.7,33.1-58.9,59.8-116.4,40.2    c-11-4.1-21.4-9.4-31.1-16L589,418c-9.8-8.1-21.2-14.1-33.5-17.5c-16.5-3.1-33.6-0.6-48.5,7.2c-12,6-23.3,13.3-33.7,21.8    l-15.2-2.1c4.8-15.3,6.6-31.3,5.5-47.2c39.2-41.6,93.4-54.5,140.5-32.7c6.6,2.9,12.9,6.4,18.8,10.5l5.2,3.3    c1.3,0.8,33.1,19.9,53.1,14.3c5.6-1.6,10.4-5.4,13.1-10.6c4-12.5,3.4-26.1-1.7-38.2c-4.8-15.7-10.8-31-18-45.8    c2.8-1.1,5.4-2.6,7.7-4.4c2.5-2.1,4.6-4.5,6.4-7.2c25.8,13.3,46.2,35.3,57.5,62.1C755.4,353.3,755,378.1,745.2,399.7L745.2,399.7z     M745.2,399.7" class="st0"></path>
	</g>
</g>
</svg>