<svg xmlns:ns="&#38;ns_sfw;" xmlns:dc="http://purl.org/dc/elements/1.1/" xmlns:cc="http://creativecommons.org/ns#" xmlns:rdf="http://www.w3.org/1999/02/22-rdf-syntax-ns#" xmlns:svg="http://www.w3.org/2000/svg" xmlns="http://www.w3.org/2000/svg" xml:space="preserve" style="enable-background:new 0 0 800 800;" viewBox="0 0 800 800" y="0px" x="0px" id="Capa_1"><defs id="defs15"></defs>
<style id="style2" type="text/css">
	.st0{fill:#FFFFFF;}
</style>
<metadata>
	
</metadata>
<g id="g10">
	<path id="path6" d="M704.8,320.1c-21.4-7.5-45.5-6.2-70.9,3.6c21-82.5,15.4-164.6-16.4-225.1c-2.3-4.5-6.7-7.5-11.7-8   c-5-0.6-10,1.4-13.2,5.3l-18.9,22.3c-13.4-28.3-32.3-48.2-55.6-58.1c-23.3-9.9-50.7-9.9-80.4,0l3-29.1c0.5-5-1.5-9.9-5.3-13.2   c-3.9-3.2-9.1-4.3-13.9-2.9c-82.9,23.7-161.3,101.6-204.6,203.1c-16.6,38.9-27.4,79.9-31.8,119.7c-32.9-17.5-64.1-21.9-91-12.2   c0,0,0,0,0,0C52.6,340.3,24.7,387,15.2,456.9c-8.2,60.8-1,130.5,19.1,186.5c19.8,55,52.2,96.8,93.6,121   c24.4,14.2,50.8,21.4,77.4,21.4c17.1,0,34.3-3,51-9c42.7-15.4,75-47.9,91-91.6c9.8-26.8,13.2-56.4,10.1-87.6   c28.9-0.2,58.7-7.8,88.2-22.2c-6.5,38.2-3.7,74.3,8.3,106.4c16.3,43.5,48.9,75.8,91.7,90.9c16.4,5.8,33.2,8.6,49.9,8.6   c17.4,0,34.9-3.1,51.7-9.3c33.3-12.2,63.1-36.1,86.3-69.1c4.8-6.8,3.2-16.3-3.7-21.1c-6.8-4.8-16.3-3.2-21.1,3.7   c-39.1,55.6-97.7,78.1-153.1,58.6c-74.1-26.1-102.5-110.5-69.3-205.2c17.9-51,54.4-106.4,95.1-144.5   c42.2-39.5,83.4-56.2,113.1-45.7c54.2,19.1,72.3,125,58.5,216.3c-1.2,8.3,4.5,16,12.7,17.3c8.3,1.3,16-4.5,17.3-12.7   C799,464.8,777.1,345.5,704.8,320.1L704.8,320.1z M434,93.8c20.9-9.1,48.3-16.1,72-5.9c23.7,10.2,37.6,34.7,45.5,56.2L411.9,308.4   L434,93.8z M246.2,748.2c-34.1,12.3-70.6,8.7-102.9-10.1c-35.2-20.5-63-56.8-80.3-105.1C44.6,582.2,37.8,516.3,45.3,461   c7.7-57.3,29.2-96.3,58.8-107c29.6-10.7,71,5.7,113.5,44.9c41,37.8,77.9,92.9,96.2,143.8C347.8,637,320,721.6,246.2,748.2   L246.2,748.2z M596.4,343.6c-11.7,7.9-23.6,17.5-35.5,28.6c-44.7,41.9-83.2,100.4-103,156.6c-0.7,2-1.4,4.1-2.1,6.1   c-34.7,22.2-70.1,33.3-103.3,32.4c-2.6-11.5-6-23.2-10.2-35c-20.2-56-59.1-114.2-104.2-155.8c-8.2-7.6-16.4-14.4-24.5-20.4   c2.7-41.6,13.3-85.1,30.9-126.3c35.9-84.2,97.2-150.4,163.4-178.2l-31.1,302.3c-0.7,6.6,3,12.9,9.1,15.5c6.1,2.6,13.2,0.9,17.5-4.1   l196.7-231.6C622.6,192.3,621.4,268.6,596.4,343.6L596.4,343.6z M596.4,343.6" class="st0"></path>
	<path id="path8" d="M741.6,621.7c-5.9,5.9-5.9,15.5,0,21.4c3,3,6.8,4.4,10.7,4.4s7.8-1.5,10.7-4.4l0,0c5.9-5.9,5.9-15.5,0-21.4   C757.2,615.8,747.6,615.8,741.6,621.7L741.6,621.7z M741.6,621.7" class="st0"></path>
</g>
</svg>