<svg xmlns:ns="&#38;ns_sfw;" xmlns:dc="http://purl.org/dc/elements/1.1/" xmlns:cc="http://creativecommons.org/ns#" xmlns:rdf="http://www.w3.org/1999/02/22-rdf-syntax-ns#" xmlns:svg="http://www.w3.org/2000/svg" xmlns="http://www.w3.org/2000/svg" xml:space="preserve" style="enable-background:new 0 0 800 800;" viewBox="0 0 800 800" y="0px" x="0px" id="Capa_1"><defs id="defs17"></defs>
<style id="style2" type="text/css">
	.st0{fill:#FFFFFF;}
</style>
<metadata>
	
</metadata>
<g id="g12">
	<path id="path6" d="M145.5,620.6c0,8.5-6.9,15.4-15.4,15.4c-8.5,0-15.4-6.9-15.4-15.4c0-8.5,6.9-15.4,15.4-15.4   C138.6,605.1,145.5,612.1,145.5,620.6L145.5,620.6z M145.5,620.6" class="st0"></path>
	<path id="path8" d="M716.8,148.2H626c-20.5,0-39.3,7.3-54,19.5v-46.4c0-60.6-49.3-110-110-110H359c-8.5,0-15.4,6.9-15.4,15.4v42.4   c0,60.6,49.3,110,110,110h87.6v156.5c-4.1-0.3-8.2-0.4-12.3-0.4c-40.6,0-79.4,12.5-112.2,36.2c-6.9,5-8.5,14.6-3.5,21.6   c5,6.9,14.6,8.5,21.6,3.5c27.5-19.8,60.1-30.3,94.1-30.3c8.2,0,16.4,0.7,24.4,1.9c0.7,0.1,1.3,0.2,2,0.3c48.1,8,90.5,37.5,114.6,81   c2.8,5.1,8.1,8,13.5,8c2.5,0,5.1-0.6,7.5-1.9c7.5-4.1,10.2-13.5,6-21c-26.7-48.2-72.5-82-124.9-94.1v-49.9h75.4   c46.8,0,84.9-38.1,84.9-84.9v-41.7C732.3,155.2,725.4,148.2,716.8,148.2L716.8,148.2z M541.1,148.2h-87.6   c-43.6,0-79.1-35.5-79.1-79.1v-27H462c43.6,0,79.1,35.5,79.1,79.1V148.2z M701.4,205.3c0,29.8-24.2,54-54,54H572v-26.2   c0-29.8,24.2-54,54-54h75.4V205.3z M701.4,205.3" class="st0"></path>
	<path id="path10" d="M790.1,512.4c-13.5-30.5-49.3-44.4-79.8-30.9c-0.1,0-0.2,0.1-0.2,0.1l-100.9,46.5c-7.7,3.6-11.1,12.7-7.6,20.5   c3.6,7.7,12.7,11.1,20.5,7.6l100.8-46.5c14.9-6.5,32.4,0.3,39,15.2c6.6,14.9-0.2,32.5-15.1,39.1l-206.5,91.2   c-32.7,14.4-69.8,13.6-101.9-2.3l-75.6-37.5c-40.3-20-87-21.1-128.1-2.9l-1.5,0.7l-56.5-127.9l78.4-34.6   c37.4-16.5,79-17.8,117.4-3.8l152,55.8c13.9,5.1,21.2,20.6,16.5,34.6c-4.9,14.2-20.4,21.9-34.7,17.1l-117.5-39.7   c-8.1-2.7-16.8,1.6-19.6,9.7c-2.7,8.1,1.6,16.8,9.7,19.6l117.5,39.7c6.2,2.1,12.4,3.1,18.6,3.1c24.2,0,47-15.3,55.2-39.4   c10.2-29.7-5.6-62.7-35-73.6l-152-55.8c-45.9-16.8-95.8-15.3-140.5,4.5l-78.9,34.8c-4.4-6.8-10.8-12.1-18.6-15.1   c-9.7-3.8-20.4-3.5-29.9,0.7L14,487.1c-5.6,2.5-9.2,8-9.2,14.1v272c0,5.4,2.8,10.3,7.3,13.2c2.5,1.5,5.3,2.3,8.1,2.3   c2.4,0,4.8-0.5,7-1.7l196.8-99.4c9.4-4.3,16.5-11.9,20.3-21.5c3.1-8,3.5-16.6,1.2-24.7l1.8-0.8c32.7-14.5,69.8-13.6,101.9,2.3   l75.6,37.5c40.3,20,87,21.1,128.1,2.9l206.5-91.2C789.7,578.7,803.6,542.9,790.1,512.4L790.1,512.4z M215.4,655   c-0.8,2.1-2.3,3.7-4.4,4.6c-0.2,0.1-0.5,0.2-0.7,0.3L35.6,748.1v-67.6l45.7-22.4c7.7-3.8,10.8-13,7.1-20.7   c-3.8-7.7-13-10.8-20.7-7.1l-32.1,15.7V511.3l92.2-40.4c2-0.9,4.3-0.9,6.3-0.1s3.7,2.3,4.6,4.4l72.6,164.5c0,0,0,0,0,0l4,9   C216.1,650.7,216.2,652.9,215.4,655L215.4,655z M215.4,655" class="st0"></path>
</g>
</svg>