<svg xmlns:ns="&#38;ns_sfw;" xmlns:dc="http://purl.org/dc/elements/1.1/" xmlns:cc="http://creativecommons.org/ns#" xmlns:rdf="http://www.w3.org/1999/02/22-rdf-syntax-ns#" xmlns:svg="http://www.w3.org/2000/svg" xmlns="http://www.w3.org/2000/svg" xml:space="preserve" style="enable-background:new 0 0 800 800;" viewBox="0 0 800 800" y="0px" x="0px" id="Capa_1"><defs id="defs21"></defs>
<style id="style2" type="text/css">
	.st0{fill:#FFFFFF;}
</style>
<metadata>
	
</metadata>
<g id="g16">
	<path id="path6" d="M580.4,446.8l-52.5-52.5c-2.3-2.3-5.5-3.6-8.8-3.6c-3.3,0-6.4,1.3-8.8,3.6c-119.8,120.2-115.6,114.8-122.9,124   c-10.3,12.9,9.3,28,19.4,15.4c5.9-7.5,2.8-3.3,112.3-113.1l43.8,43.8L537,490.2c-3.5,3.5-4.6,8.9-2.7,13.5   c1.9,4.6,6.4,7.6,11.4,7.6c9.3,0,4.6-1.4,95.9-90.8l35,35L527.9,604.3c-9,9-23.3,9.7-33.1,1.7c-9.9-8-12.1-22.1-5.2-32.7   c1.8-2.7,2.4-6.1,1.8-9.3c-0.7-3.2-2.6-6-5.4-7.8c-2.8-1.8-6.1-2.4-9.3-1.7c-3.2,0.7-6,2.6-7.8,5.4c-21.1,32.4,1.9,76.5,41.5,76.5   c13.1,0,25.7-5.2,35-14.5l87.5-87.5l43.8,43.8l-105,105c-15.1,15.1-34.6,25.1-55.8,28.3c-6.7,1.2-11.2,7.5-10.1,14.2   c1.1,6.7,7.5,11.3,14.2,10.2c26.2-4.1,50.4-16.4,69.2-35.3l113.8-113.8c2.3-2.3,3.6-5.5,3.6-8.8c0-3.3-1.3-6.4-3.6-8.8l-52.5-52.5   c109.5-109.5,53.4-53.4,131.3-131.3c9.3-9.3,14.5-21.9,14.5-35c0-44.5-53.7-65.8-84.5-35C641.6,385.5,700.5,326.6,580.4,446.8   L580.4,446.8z M729.2,333c9.7-9.7,25.3-9.7,35,0c9.7,9.7,9.7,25.3,0,35l-70,70l-35-35L729.2,333z M729.2,333" class="st0"></path>
	<path id="path8" d="M111.4,567c6.6-2.3,13.6-4.3,20.9-6c29.7,0.8,45,26.2,45,37.1c0,6.8,5.5,12.4,12.4,12.4   c26.7,0,8.1-61.1-42.5-72.5c28-71.7,109.6-63.3,111.3-63.7c-4.3,16.2-6.6,32.8-6.9,49.5c0,11.9,13.5,12.9,12.4,12.4   c6.8,0,12.4-5.5,12.4-12.4c0-0.3,0.2-34.4,11-56.1c36.7-66.3,106.2-79.9,163.2-58.7c6.4,2.4,13.5-0.9,15.9-7.3   c2.4-6.4-0.9-13.5-7.3-15.9c-15-5.5-30.7-8.9-46.6-10V269.8l58.2-45.7c34.3,33.3,78.2,19.9,115.8-9.7   c52.3-41.1,76.4-140.2,77.4-144.4c0.9-3.7,0-7.6-2.3-10.5c-2.3-3-5.9-4.7-9.7-4.7c-4.3,0-106.3,0-158.6,41.1   c-36.6,28.8-60.5,67.6-37.8,108.6l-43.1,33.9c0.2-28.6-5.2-57-15.8-83.5c25.4-27.4,27.5-65.9-15.7-106.3   C339.6,10,252.3,4.1,248.6,3.9c-3.7-0.2-7.3,1.2-9.8,3.9c-2.5,2.7-3.7,6.4-3.2,10.1c0.5,3.7,12.3,90.4,53.6,129   c25.1,23.4,56.3,38.7,87,23.6c17.4,48,9.7,80.9,11.6,134.4l-35.4-19.3c6-20.6,4-54.2-51.7-84.5c-51.3-28-137.5-17.2-141.2-16.8   c-3.9,0.5-7.4,2.9-9.3,6.4c-1.9,3.5-2,7.7-0.3,11.2c1.6,3.3,39.3,81.6,90.6,109.5c35.3,19.2,75.1,27.2,100.3-3.9l46.9,25.6v42.6   c-50.1,3.6-91.7,29.4-118.6,73.8c-12.8,1.4-59.8-7.5-104.8,26.4c-20.9,15.6-36.1,37.5-43.6,62.4c-6,1.6-11.9,3.4-17.5,5.3   c-3.1,1.1-5.7,3.3-7.1,6.3c-1.4,3-1.7,6.4-0.6,9.5c1.1,3.1,3.3,5.7,6.3,7.1C104.9,567.9,108.3,568.1,111.4,567L111.4,567z    M508.6,115.4c34.1-26.8,97-33.5,126.8-35.2c-8.7,28.5-30.1,88-64.2,114.8c-25.3,19.9-56.3,34.6-80.8,13.6l90.6-71.2   c5.4-4.2,6.3-12,2.1-17.4c-4.2-5.4-12-6.3-17.4-2.1l-90.3,71C462.5,160.6,484.3,134.5,508.6,115.4L508.6,115.4z M384.6,129.9   c-13.1-23.4-30.3-44.1-50.9-61.3c-5.2-4.4-13.1-3.7-17.4,1.6c-4.4,5.3-3.7,13.1,1.6,17.4c19.9,16.6,36.4,37,48.3,60.1   c-20.7,11-43-3-60.1-18.9c-25.4-23.7-38.1-73.2-43.2-98.5c25.6,3.3,75.8,12.7,101.2,36.4C383.3,84.7,398.3,107.4,384.6,129.9   L384.6,129.9z M329.7,273.3l-63-34.3c-6-3.3-13.5-1-16.8,5c-3.3,6-1.1,13.5,4.9,16.8l63.6,34.6c-13.5,12.8-35.7,10.9-66.1-5.6   c-31.4-17.1-58.4-59.1-71.6-82.4c26.7-1.5,76.6-1.6,108,15.5C318.1,238.8,331.8,255.7,329.7,273.3L329.7,273.3z M329.7,273.3" class="st0"></path>
	<path id="path10" d="M759.5,582.7c-4.9-4.8-12.7-4.8-17.5,0.1c-4.8,4.9-4.8,12.7,0.1,17.5c63.4,63.2,18.2,171.1-69.7,171.1H127.7   c-64.1,0-114-60.7-95.1-129.9c1.8-6.6-2.1-13.4-8.7-15.2c-6.6-1.8-13.4,2.1-15.2,8.7c-23.3,85.5,39.1,161.2,119,161.2h544.7   c68.3-0.1,123.7-55.5,123.8-123.8C796.2,633.8,782,603,759.5,582.7L759.5,582.7z M759.5,582.7" class="st0"></path>
	<path id="path12" d="M431,721.8c-6.8,0-12.4,5.5-12.4,12.4c0,27.3,68.1,8.9,68.1-43.3c0-23.6-14.9-44.7-37.2-52.6   c3.3-78.6-102.8-107.5-139.7-38.2c-16.8-4.7-34.8-1.2-48.6,9.3c-13.9,10.5-22,26.9-22,44.3c0,52.6,68.1,70.4,68.1,43.3   c0-6.8-5.5-12.4-12.4-12.4c-9.6,0-18.7-4.5-24.5-12.1c-5.9-7.6-7.8-17.5-5.4-26.8c2.5-9.3,9.1-16.9,18-20.6   c8.9-3.7,19-3.1,27.3,1.7c3.2,1.9,7.1,2.2,10.6,0.8c3.5-1.3,6.2-4.2,7.3-7.7c8-25.1,34.4-39.5,59.9-32.8   c25.5,6.8,41.2,32.3,35.8,58.1c-0.7,3.4,0,7,2.1,9.8c2,2.8,5.2,4.7,8.6,5c16.3,1.9,28.3,16.1,27.3,32.5   C460.9,709,447.4,721.8,431,721.8L431,721.8z M431,721.8" class="st0"></path>
	<path id="path14" d="M523.9,536.2c0,6.8-5.5,12.4-12.4,12.4c-6.8,0-12.4-5.5-12.4-12.4s5.5-12.4,12.4-12.4   C518.3,523.8,523.9,529.3,523.9,536.2L523.9,536.2z M523.9,536.2" class="st0"></path>
</g>
</svg>