<svg xmlns:ns="&#38;ns_sfw;" xmlns:dc="http://purl.org/dc/elements/1.1/" xmlns:cc="http://creativecommons.org/ns#" xmlns:rdf="http://www.w3.org/1999/02/22-rdf-syntax-ns#" xmlns:svg="http://www.w3.org/2000/svg" xmlns="http://www.w3.org/2000/svg" xml:space="preserve" style="enable-background:new 0 0 1158.7 800;" viewBox="0 0 1158.7 800" y="0px" x="0px" id="Capa_1"><defs id="defs31"></defs>
<style id="style2" type="text/css">
	.st0{fill:#666666;}
	.st1{fill:#92BF35;}
</style>
<metadata>
	
</metadata>
<g id="g26">
	<g id="g22">
		<path id="path6" d="M163.5,520.1V394.9c0-17.6,14.2-31.8,31.8-31.8c8.8,0,15.9-7.1,15.9-15.9c0-8.8-7.1-15.9-15.9-15.9h-63.6    c-92.5,1.8-57.2,131.5-63.6,188.6c-22.1,13.4-2.2,39.2,14.8,28.2c5.2-3.4,11-6,17-7.8v109.1c0,8.8,7.1,15.9,15.9,15.9    s15.9-7.1,15.9-15.9V540.3c89.6,22.3,80.6,220.6-15.9,220.4c-43.8,0-79.5-49.9-79.5-111.3c0-23.9-31.8-24.2-31.8,0    c0,78.9,49.9,143.1,111.3,143.1C237.4,793.7,264.9,575.3,163.5,520.1L163.5,520.1z M131.7,507.7c-10.5-2-21.3-2-31.8,0V394.9    c-0.2-21.7,20.2-34.6,40.4-31.8C125.9,387.9,134.1,403.4,131.7,507.7L131.7,507.7z M131.7,507.7" class="st0"></path>
		<path id="path8" d="M538,540.6c-15.6-17.2-35-28.9-56.3-32.9v-66.4c115.1-25,48.1-201.3-15.8-221.3c-15.4,2.3-75,56.9-79.7,127.2    c0,53.1,23.5,87.1,63.6,94.1v66.4c-44.4,8-75,46.8-87.9,89.8c-6.2,19.7,24.8,29,30.5,9.2c2.7-9,6.3-17.7,10.9-25.8    c77.5,92.1,47.4,92.3,125.1,0c61.9,102.5-50.5,255.7-124.9,137.4c-9.9-18.1-38.1-2.1-27.7,15.7C477.4,899.9,660.2,675.3,538,540.6    L538,540.6z M481.6,275.6c31.5,32.8,52.6,110,0,132.9V275.6z M418,347.2c0-26.2,16.4-52.6,31.8-71.6v132.9    C424,400.4,418,371.8,418,347.2L418,347.2z M465.7,608l-42.3-52.9c25.5-22.5,58.4-23.1,84.6,0L465.7,608z M465.7,608" class="st0"></path>
		<path id="path10" d="M879.2,379c79-0.1,143-64.1,143.1-143.1c0-8.8-7.1-15.9-15.9-15.9c-68.6-6-142.5,10.3-175,77.7    c-32.4-67.3-106.4-83.7-175-77.7c-8.8,0-15.9,7.1-15.9,15.9c-0.7,93.8,86,154.4,175,143.1v128.7c-44.1,8-74.9,46.3-87.9,89.8    c-6.2,19.7,24.8,29,30.5,9.2c2.7-9,6.3-17.6,10.9-25.8c77.5,92.2,47.4,92.3,125.1,0c61.9,102.5-50.5,255.7-124.9,137.4    c-9.9-18.1-38.1-2.1-27.7,15.7c146.5,205,308.7-167.6,106-226.1V379H879.2z M958.8,251.8h30.7c-9,69-76.2,103.6-140.9,95.4    C856.6,292.4,903.5,251.8,958.8,251.8z M783.8,347.2c-55.3-0.1-102.2-40.7-110.2-95.4c64.6-8.2,131.9,26.5,140.9,95.4H783.8z     M873.8,555.2L831.5,608l-42.3-52.9C814.7,532.7,847.6,532,873.8,555.2L873.8,555.2z M873.8,555.2" class="st0"></path>
		<path id="path12" d="M349.7,465.2L304,419.4c-6.2-6.2-16.3-6.2-22.5,0c-6.2,6.2-6.2,16.3,0,22.5l34.5,34.5l-34.5,34.5    c-4.5,4.6-5.9,11.4-3.4,17.3c2.5,5.9,8.3,9.8,14.7,9.8c11.5,0,11.9-7.5,57-50.4c3-3,4.7-7,4.7-11.2    C354.4,472.2,352.7,468.2,349.7,465.2L349.7,465.2z M349.7,465.2" class="st0"></path>
		<path id="path14" d="M667.8,419.4c-6.2-6.2-16.3-6.2-22.5,0c-6.2,6.2-6.2,16.3,0,22.5l34.5,34.5l-34.5,34.5    c-4.5,4.6-5.9,11.4-3.4,17.3c2.5,5.9,8.3,9.8,14.7,9.8c11.5,0,11.9-7.5,57-50.4c3-3,4.7-7,4.7-11.2c0-4.2-1.7-8.3-4.7-11.2    L667.8,419.4z M667.8,419.4" class="st0"></path>
		<path id="path16" d="M52.2,585.8c0,8.8-7.1,15.9-15.9,15.9s-15.9-7.1-15.9-15.9c0-8.8,7.1-15.9,15.9-15.9S52.2,577,52.2,585.8    L52.2,585.8z M52.2,585.8" class="st0"></path>
		<path id="path18" d="M386.2,665.3c0,8.8-7.1,15.9-15.9,15.9c-8.8,0-15.9-7.1-15.9-15.9c0-8.8,7.1-15.9,15.9-15.9    C379.1,649.4,386.2,656.5,386.2,665.3L386.2,665.3z M386.2,665.3" class="st0"></path>
		<path id="path20" d="M752,665.3c0,8.8-7.1,15.9-15.9,15.9c-8.8,0-15.9-7.1-15.9-15.9c0-8.8,7.1-15.9,15.9-15.9    C744.9,649.4,752,656.5,752,665.3L752,665.3z M752,665.3" class="st0"></path>
	</g>
	<path id="path24" d="M1025.2,5.2c-71.2,0-129,57.7-129,129s57.7,129,129,129c71.2,0,129-57.7,129-129S1096.4,5.2,1025.2,5.2z    M1114.8,110.7l-99.2,85c-5.1,4.6-11.6,7.2-18.4,7.4c-7.5,0-14.7-3-20-8.4l-42.5-42.5c-11.1-11.1-11.1-29,0-40.1   c11.1-11.1,29-11.1,40.1,0l23.9,23.9l79.2-67.9c13-8.7,30.6-5.3,39.3,7.7C1124.5,86.7,1123.5,101,1114.8,110.7z" class="st1"></path>
</g>
</svg>