<svg xmlns:ns="&#38;ns_sfw;" xmlns:dc="http://purl.org/dc/elements/1.1/" xmlns:cc="http://creativecommons.org/ns#" xmlns:rdf="http://www.w3.org/1999/02/22-rdf-syntax-ns#" xmlns:svg="http://www.w3.org/2000/svg" xmlns="http://www.w3.org/2000/svg" xml:space="preserve" style="enable-background:new 0 0 800 800;" viewBox="0 0 800 800" y="0px" x="0px" id="Capa_1"><defs id="defs27"></defs>
<style id="style2" type="text/css">
	.st0{fill:#666666;}
	.st1{fill:#92BF35;}
</style>
<metadata>
	
</metadata>
<g id="g22">
	<g id="g14">
		<path id="path6" d="M398.2,165.1l-7.7-1.9l-4.8,6.3c-1.4,1.8-33.8,44.6-20.8,81.6c7.3,20.7,26.7,33.9,42.8,41.6    c12.8,6.1,23.5,8.8,24.4,9.1l7.7,1.9l4.8-6.3c1.4-1.8,33.8-44.6,20.8-81.6C452.4,178.8,400.4,165.7,398.2,165.1L398.2,165.1z     M430.1,276c-14.1-5-36.4-16-42.3-32.8c-5.9-16.8,4.6-39.3,12.5-52.1c14.2,5,36.5,16,42.3,32.8C448.5,240.6,438,263.2,430.1,276    L430.1,276z M430.1,276" class="st0"></path>
		<path id="path8" d="M472.5,156l7.7,1.9l4.8-6.3c1.4-1.8,33.8-44.6,20.8-81.6c-13-37-65-50.2-67.2-50.7l-7.7-1.9l-4.8,6.3    c-1.4,1.8-33.8,44.6-20.8,81.6c7.3,20.7,26.7,33.9,42.8,41.6C460.8,153,471.5,155.7,472.5,156L472.5,156z M440.6,45.2    c14.2,5,36.5,16,42.3,32.8c5.9,16.8-4.6,39.3-12.5,52.1c-14.2-5-36.5-16-42.3-32.8C422.2,80.5,432.7,57.9,440.6,45.2L440.6,45.2z     M440.6,45.2" class="st0"></path>
		<path id="path10" d="M525.4,250.5l7.8-1c2.3-0.3,55.4-7.6,72.4-43c17-35.4-10.5-81.5-11.7-83.4l-4.1-6.7l-7.8,1    c-2.3,0.3-55.4,7.6-72.4,43c-17,35.4,10.5,81.5,11.7,83.4L525.4,250.5z M531.4,170.8c7.7-16,31.1-24.6,45.7-28    c6.5,13.6,14.4,37.1,6.7,53.1s-31.1,24.6-45.7,28C531.6,210.4,523.7,186.9,531.4,170.8L531.4,170.8z M531.4,170.8" class="st0"></path>
		<path id="path12" d="M564.9,295.8c-35.4-17-81.5,10.5-83.4,11.7l-6.7,4.1l1,7.8c0.3,2.3,7.6,55.4,43,72.4    c35.4,17,81.5-10.5,83.4-11.7l6.7-4.1l-1-7.8C607.6,365.9,600.3,312.8,564.9,295.8L564.9,295.8z M529.3,370    c-16-7.7-24.6-31.1-28-45.7c13.5-6.5,37-14.5,53.2-6.7c16,7.7,24.6,31.1,28,45.7C568.9,369.8,545.4,377.8,529.3,370L529.3,370z     M529.3,370" class="st0"></path>
	</g>
	<g id="g20">
		<path id="path16" d="M142.4,612.5c0,8.6-7,15.6-15.6,15.6s-15.6-7-15.6-15.6c0-8.6,7-15.6,15.6-15.6S142.4,603.9,142.4,612.5    L142.4,612.5z M142.4,612.5" class="st0"></path>
		<path id="path18" d="M794.8,503c-13.6-30.9-49.9-44.9-80.7-31.3c-0.1,0-0.2,0.1-0.2,0.1L611.7,519c-7.8,3.6-11.3,12.9-7.6,20.7    c3.6,7.8,12.9,11.3,20.7,7.7l102-47c15.1-6.6,32.8,0.3,39.4,15.4c6.7,15.1-0.2,32.9-15.3,39.5L542,647.5    c-33.1,14.6-70.7,13.8-103.1-2.3l-76.5-38c-40.8-20.2-88-21.3-129.6-2.9l-1.5,0.7l-57.2-129.4l79.4-35c37.8-16.7,80-18,118.8-3.8    L526,493c14,5.2,21.5,20.8,16.7,35c-4.9,14.4-20.7,22.2-35.1,17.3l-118.9-40.2c-8.2-2.8-17,1.6-19.8,9.8c-2.8,8.2,1.6,17,9.8,19.8    l118.9,40.2c6.2,2.1,12.6,3.1,18.8,3.1c24.5,0,47.5-15.4,55.9-39.9c10.3-30.1-5.6-63.5-35.5-74.4L383,407.2    c-46.4-17-96.9-15.4-142.2,4.5L161,447c-4.5-6.9-11-12.2-18.8-15.3c-9.9-3.8-20.6-3.6-30.2,0.7L9.3,477.4    c-5.7,2.5-9.3,8.1-9.3,14.3V767c0,5.4,2.8,10.5,7.4,13.3c2.5,1.5,5.3,2.3,8.2,2.3c2.4,0,4.8-0.6,7-1.7l199.2-100.6    c9.5-4.3,16.7-12,20.5-21.7c3.1-8.1,3.5-16.8,1.2-25l1.9-0.8c33.1-14.6,70.7-13.8,103.1,2.3l76.5,38c40.7,20.2,88,21.3,129.6,2.9    l208.9-92.2C794.4,570.2,808.4,533.9,794.8,503L794.8,503z M213.2,647.3c-0.8,2.1-2.4,3.7-4.4,4.6c-0.3,0.1-0.5,0.2-0.7,0.3    L31.3,741.6v-68.4l46.2-22.7c7.7-3.8,10.9-13.2,7.1-20.9c-3.8-7.7-13.2-10.9-20.9-7.1l-32.4,15.9V501.9l93.3-40.9    c2-0.9,4.3-1,6.4-0.1c2.1,0.8,3.7,2.4,4.6,4.4L209,631.8c0,0,0,0,0,0l4,9.1C213.9,643,214,645.2,213.2,647.3L213.2,647.3z     M213.2,647.3" class="st0"></path>
	</g>
</g>
</svg>