<svg xmlns:ns="&#38;ns_sfw;" xmlns:dc="http://purl.org/dc/elements/1.1/" xmlns:cc="http://creativecommons.org/ns#" xmlns:rdf="http://www.w3.org/1999/02/22-rdf-syntax-ns#" xmlns:svg="http://www.w3.org/2000/svg" xmlns="http://www.w3.org/2000/svg" xml:space="preserve" style="enable-background:new 0 0 800 800;" viewBox="0 0 800 800" y="0px" x="0px" id="Capa_1"><defs id="defs15"></defs>
<style id="style2" type="text/css">
	.st0{fill:#666666;}
	.st1{fill:#92BF35;}
</style>
<metadata>
	
</metadata>
<g id="g10">
	<path id="path6" d="M799.6,347.8L663.4,129.9c-1.4-2.3-3.7-4.1-6.2-4.9L403.7,40.5c-2.4-0.8-5-0.8-7.4,0l-253.4,84.5   c-2.6,0.9-4.8,2.6-6.3,4.9L0.4,347.8c-3.4,5.5-1.8,12.8,3.7,16.2l43,26.9v345.8H32.7c-6.5,0-11.8,5.3-11.8,11.8   c0,6.5,5.3,11.8,11.8,11.8h734.7c6.5,0,11.8-5.3,11.8-11.8c0-6.5-5.3-11.8-11.8-11.8h-14.5V390.8l43-26.9   C801.3,360.5,803,353.3,799.6,347.8L799.6,347.8z M275,736.6l125-104.1l125,104.1H275z M254.3,723.3V511.1l127.3,106.1L254.3,723.3   z M545.7,723.3L418.4,617.2l52.1-43.4c5-4.2,5.7-11.6,1.5-16.6c-4.2-5-11.6-5.7-16.6-1.5L400,601.9L275,497.7H525l-27.5,22.9   c-5,4.2-5.7,11.6-1.5,16.6c2.3,2.8,5.7,4.2,9,4.2c2.7,0,5.3-0.9,7.5-2.7l33.2-27.7V723.3z M557.4,474.2H228.1v-29h343.8v29H557.4   C557.4,474.2,557.4,474.2,557.4,474.2L557.4,474.2z M748.8,365.6l-120-191.9c-1.4-2.3-3.7-4.1-6.3-4.9l-218.9-73   c-2.4-0.8-5-0.8-7.4,0L252,143.9c-6.2,2.1-9.5,8.7-7.4,14.9c2,6.2,8.7,9.5,14.9,7.4L400,119.3l211.2,70.4l118.2,189.1v357.8H569.2   V497.7h14.5c6.5,0,11.8-5.3,11.8-11.8v-52.5c0-6.5-5.3-11.8-11.8-11.8H216.3c-6.5,0-11.8,5.3-11.8,11.8V486   c0,6.5,5.3,11.8,11.8,11.8h14.5v238.9H70.6V378.8l118.2-189.1l22.4-7.5c6.2-2.1,9.5-8.7,7.4-14.9c-2.1-6.2-8.7-9.5-14.9-7.4   l-26.4,8.8c-2.6,0.9-4.8,2.6-6.3,4.9l-120,191.9l-24.6-15.4l127.7-204.4L400,64l245.7,81.9l127.7,204.4L748.8,365.6z M748.8,365.6" class="st0"></path>
	<path id="path8" d="M491.8,198.7H308.2c-6.5,0-11.8,5.3-11.8,11.8v157.4c0,6.5,5.3,11.8,11.8,11.8h183.7c6.5,0,11.8-5.3,11.8-11.8   V210.5C503.6,204,498.3,198.7,491.8,198.7L491.8,198.7z M480.1,356.2h-68.3V263c0-6.5-5.3-11.8-11.8-11.8   c-6.5,0-11.8,5.3-11.8,11.8v93.2h-68.3V222.2h160.2V356.2z M480.1,356.2" class="st0"></path>
</g>
</svg>